<svg width="133" height="222" viewBox="0 0 133 222" fill="none" xmlns="http://www.w3.org/2000/svg">
<path d="M132.31 196.257H37.8984V32.522L84.0075 0L132.31 32.522V196.257Z" fill="#02B3F0"/>
<path d="M58.5265 40.2734H56.9711C56.9427 40.0722 56.8847 39.8935 56.7971 39.7372C56.7095 39.5786 56.5971 39.4437 56.4598 39.3324C56.3225 39.2211 56.1639 39.1359 55.9839 39.0767C55.8064 39.0175 55.6134 38.9879 55.4051 38.9879C55.0287 38.9879 54.7008 39.0814 54.4214 39.2685C54.1421 39.4531 53.9255 39.723 53.7716 40.0781C53.6177 40.4309 53.5407 40.8594 53.5407 41.3636C53.5407 41.8821 53.6177 42.3177 53.7716 42.6705C53.9278 43.0232 54.1456 43.2895 54.425 43.4695C54.7043 43.6494 55.0275 43.7393 55.3944 43.7393C55.6004 43.7393 55.791 43.7121 55.9662 43.6577C56.1437 43.6032 56.3012 43.5239 56.4385 43.4197C56.5758 43.3132 56.6894 43.1842 56.7794 43.0327C56.8717 42.8812 56.9356 42.7083 56.9711 42.5142L58.5265 42.5213C58.4863 42.8551 58.3857 43.1771 58.2247 43.4872C58.0661 43.795 57.8518 44.0708 57.5819 44.3146C57.3144 44.5561 56.9948 44.7479 56.6231 44.8899C56.2538 45.0296 55.836 45.0994 55.3696 45.0994C54.7209 45.0994 54.1409 44.9527 53.6295 44.6591C53.1205 44.3655 52.7181 43.9406 52.4221 43.3842C52.1286 42.8279 51.9818 42.1544 51.9818 41.3636C51.9818 40.5705 52.1309 39.8958 52.4292 39.3395C52.7275 38.7831 53.1324 38.3594 53.6437 38.0682C54.1551 37.7746 54.7304 37.6278 55.3696 37.6278C55.791 37.6278 56.1816 37.687 56.5415 37.8054C56.9037 37.9238 57.2245 38.0966 57.5038 38.3239C57.7832 38.5488 58.0104 38.8246 58.1856 39.1513C58.3632 39.478 58.4768 39.852 58.5265 40.2734ZM62.0653 45.1065C61.5136 45.1065 61.0366 44.9893 60.6341 44.755C60.234 44.5182 59.9251 44.1892 59.7073 43.7678C59.4895 43.344 59.3806 42.8527 59.3806 42.294C59.3806 41.7306 59.4895 41.2382 59.7073 40.8168C59.9251 40.393 60.234 40.0639 60.6341 39.8295C61.0366 39.5928 61.5136 39.4744 62.0653 39.4744C62.6169 39.4744 63.0927 39.5928 63.4928 39.8295C63.8953 40.0639 64.2054 40.393 64.4232 40.8168C64.641 41.2382 64.7499 41.7306 64.7499 42.294C64.7499 42.8527 64.641 43.344 64.4232 43.7678C64.2054 44.1892 63.8953 44.5182 63.4928 44.755C63.0927 44.9893 62.6169 45.1065 62.0653 45.1065ZM62.0724 43.9347C62.3233 43.9347 62.5328 43.8636 62.7009 43.7216C62.869 43.5772 62.9956 43.3807 63.0809 43.1321C63.1685 42.8835 63.2123 42.6006 63.2123 42.2834C63.2123 41.9661 63.1685 41.6832 63.0809 41.4347C62.9956 41.1861 62.869 40.9896 62.7009 40.8452C62.5328 40.7008 62.3233 40.6286 62.0724 40.6286C61.819 40.6286 61.606 40.7008 61.4331 40.8452C61.2627 40.9896 61.1337 41.1861 61.0461 41.4347C60.9608 41.6832 60.9182 41.9661 60.9182 42.2834C60.9182 42.6006 60.9608 42.8835 61.0461 43.1321C61.1337 43.3807 61.2627 43.5772 61.4331 43.7216C61.606 43.8636 61.819 43.9347 62.0724 43.9347ZM67.2464 41.8466V45H65.7336V39.5455H67.1753V40.5078H67.2393C67.36 40.1906 67.5624 39.9396 67.8465 39.755C68.1306 39.5679 68.4751 39.4744 68.8799 39.4744C69.2587 39.4744 69.5889 39.5573 69.8706 39.723C70.1524 39.8887 70.3714 40.1255 70.5276 40.4332C70.6839 40.7386 70.762 41.1032 70.762 41.527V45H69.2492V41.7969C69.2516 41.4631 69.1663 41.2027 68.9935 41.0156C68.8207 40.8262 68.5828 40.7315 68.2797 40.7315C68.0761 40.7315 67.8962 40.7753 67.74 40.8629C67.5861 40.9505 67.4653 41.0784 67.3778 41.2464C67.2925 41.4122 67.2487 41.6122 67.2464 41.8466ZM74.8875 39.5455V40.6818H71.521V39.5455H74.8875ZM72.2916 45V39.1513C72.2916 38.7559 72.3686 38.428 72.5225 38.1676C72.6787 37.9072 72.8918 37.7119 73.1617 37.5817C73.4316 37.4515 73.7381 37.3864 74.0814 37.3864C74.3134 37.3864 74.5253 37.4041 74.7171 37.4396C74.9112 37.4751 75.0556 37.5071 75.1503 37.5355L74.8804 38.6719C74.8212 38.6529 74.7478 38.6352 74.6602 38.6186C74.575 38.602 74.4874 38.5938 74.3975 38.5938C74.1749 38.5938 74.0199 38.6458 73.9323 38.75C73.8447 38.8518 73.8009 38.995 73.8009 39.1797V45H72.2916ZM75.8117 45V39.5455H77.3245V45H75.8117ZM76.5716 38.8423C76.3467 38.8423 76.1538 38.7678 75.9928 38.6186C75.8342 38.4671 75.7549 38.286 75.7549 38.0753C75.7549 37.867 75.8342 37.6882 75.9928 37.5391C76.1538 37.3875 76.3467 37.3118 76.5716 37.3118C76.7965 37.3118 76.9883 37.3875 77.1469 37.5391C77.3079 37.6882 77.3884 37.867 77.3884 38.0753C77.3884 38.286 77.3079 38.4671 77.1469 38.6186C76.9883 38.7678 76.7965 38.8423 76.5716 38.8423ZM80.5463 45.0888C80.132 45.0888 79.7567 44.9822 79.4205 44.7692C79.0867 44.5537 78.8216 44.2377 78.6251 43.821C78.431 43.402 78.3339 42.8883 78.3339 42.2798C78.3339 41.6548 78.4345 41.1352 78.6357 40.7209C78.837 40.3042 79.1045 39.9929 79.4383 39.7869C79.7745 39.5786 80.1426 39.4744 80.5427 39.4744C80.8481 39.4744 81.1026 39.5265 81.3062 39.6307C81.5122 39.7325 81.6779 39.8603 81.8034 40.0142C81.9312 40.1657 82.0283 40.3149 82.0945 40.4616H82.1407V37.7273H83.6499V45H82.1585V44.1264H82.0945C82.0235 44.2779 81.9229 44.4283 81.7927 44.5774C81.6649 44.7242 81.498 44.8461 81.292 44.9432C81.0884 45.0402 80.8398 45.0888 80.5463 45.0888ZM81.0257 43.8849C81.2695 43.8849 81.4755 43.8187 81.6436 43.6861C81.814 43.5511 81.9442 43.3629 82.0342 43.1214C82.1265 42.88 82.1727 42.5971 82.1727 42.2727C82.1727 41.9484 82.1277 41.6667 82.0377 41.4276C81.9478 41.1884 81.8176 41.0038 81.6471 40.8736C81.4767 40.7434 81.2695 40.6783 81.0257 40.6783C80.7771 40.6783 80.5676 40.7457 80.3971 40.8807C80.2267 41.0156 80.0976 41.2027 80.01 41.4418C79.9224 41.6809 79.8786 41.9579 79.8786 42.2727C79.8786 42.59 79.9224 42.8705 80.01 43.1143C80.1 43.3558 80.229 43.5452 80.3971 43.6825C80.5676 43.8175 80.7771 43.8849 81.0257 43.8849ZM87.3795 45.1065C86.8184 45.1065 86.3355 44.9929 85.9307 44.7656C85.5282 44.536 85.2181 44.2116 85.0003 43.7926C84.7825 43.3712 84.6736 42.8729 84.6736 42.2976C84.6736 41.7365 84.7825 41.2441 85.0003 40.8203C85.2181 40.3965 85.5247 40.0663 85.92 39.8295C86.3177 39.5928 86.7841 39.4744 87.3192 39.4744C87.679 39.4744 88.014 39.5324 88.3241 39.6484C88.6366 39.7621 88.9089 39.9337 89.1409 40.1634C89.3753 40.393 89.5576 40.6818 89.6878 41.0298C89.818 41.3755 89.8831 41.7803 89.8831 42.2443V42.6598H85.2773V41.7223H88.4591C88.4591 41.5045 88.4117 41.3116 88.317 41.1435C88.2223 40.9754 88.0909 40.844 87.9229 40.7493C87.7571 40.6522 87.5642 40.6037 87.344 40.6037C87.1144 40.6037 86.9108 40.657 86.7332 40.7635C86.558 40.8677 86.4207 41.0085 86.3213 41.1861C86.2219 41.3613 86.171 41.5566 86.1686 41.772V42.6634C86.1686 42.9332 86.2183 43.1664 86.3177 43.3629C86.4195 43.5594 86.5628 43.7109 86.7474 43.8175C86.9321 43.924 87.1511 43.9773 87.4044 43.9773C87.5725 43.9773 87.7264 43.9536 87.866 43.9062C88.0057 43.8589 88.1253 43.7879 88.2247 43.6932C88.3241 43.5985 88.3999 43.4825 88.452 43.3452L89.8511 43.4375C89.7801 43.7737 89.6345 44.0672 89.4143 44.3182C89.1965 44.5668 88.9148 44.7609 88.5692 44.9006C88.2259 45.0379 87.8293 45.1065 87.3795 45.1065ZM92.3831 41.8466V45H90.8703V39.5455H92.3121V40.5078H92.376C92.4967 40.1906 92.6991 39.9396 92.9832 39.755C93.2673 39.5679 93.6118 39.4744 94.0166 39.4744C94.3954 39.4744 94.7256 39.5573 95.0074 39.723C95.2891 39.8887 95.5081 40.1255 95.6643 40.4332C95.8206 40.7386 95.8987 41.1032 95.8987 41.527V45H94.3859V41.7969C94.3883 41.4631 94.3031 41.2027 94.1302 41.0156C93.9574 40.8262 93.7195 40.7315 93.4165 40.7315C93.2129 40.7315 93.0329 40.7753 92.8767 40.8629C92.7228 40.9505 92.6021 41.0784 92.5145 41.2464C92.4292 41.4122 92.3854 41.6122 92.3831 41.8466ZM99.9923 39.5455V40.6818H96.7075V39.5455H99.9923ZM97.4532 38.2386H98.966V43.3239C98.966 43.4635 98.9873 43.5724 99.0299 43.6506C99.0725 43.7263 99.1317 43.7796 99.2075 43.8104C99.2856 43.8411 99.3756 43.8565 99.4774 43.8565C99.5484 43.8565 99.6194 43.8506 99.6904 43.8388C99.7615 43.8246 99.8159 43.8139 99.8538 43.8068L100.092 44.9325C100.016 44.9562 99.9094 44.9834 99.7721 45.0142C99.6348 45.0473 99.4679 45.0675 99.2714 45.0746C98.9068 45.0888 98.5872 45.0402 98.3126 44.929C98.0403 44.8177 97.8285 44.6449 97.6769 44.4105C97.5254 44.1761 97.4508 43.8802 97.4532 43.5227V38.2386ZM103.321 45V37.7273H104.858V40.9339H104.954L107.571 37.7273H109.414L106.715 40.9837L109.446 45H107.607L105.615 42.0099L104.858 42.9332V45H103.321ZM110.528 45V39.5455H112.041V45H110.528ZM111.288 38.8423C111.064 38.8423 110.871 38.7678 110.71 38.6186C110.551 38.4671 110.472 38.286 110.472 38.0753C110.472 37.867 110.551 37.6882 110.71 37.5391C110.871 37.3875 111.064 37.3118 111.288 37.3118C111.513 37.3118 111.705 37.3875 111.864 37.5391C112.025 37.6882 112.105 37.867 112.105 38.0753C112.105 38.286 112.025 38.4671 111.864 38.6186C111.705 38.7678 111.513 38.8423 111.288 38.8423ZM115.263 45.0888C114.849 45.0888 114.474 44.9822 114.137 44.7692C113.804 44.5537 113.538 44.2377 113.342 43.821C113.148 43.402 113.051 42.8883 113.051 42.2798C113.051 41.6548 113.151 41.1352 113.353 40.7209C113.554 40.3042 113.821 39.9929 114.155 39.7869C114.491 39.5786 114.859 39.4744 115.259 39.4744C115.565 39.4744 115.819 39.5265 116.023 39.6307C116.229 39.7325 116.395 39.8603 116.52 40.0142C116.648 40.1657 116.745 40.3149 116.811 40.4616H116.858V37.7273H118.367V45H116.875V44.1264H116.811C116.74 44.2779 116.64 44.4283 116.509 44.5774C116.382 44.7242 116.215 44.8461 116.009 44.9432C115.805 45.0402 115.557 45.0888 115.263 45.0888ZM115.742 43.8849C115.986 43.8849 116.192 43.8187 116.36 43.6861C116.531 43.5511 116.661 43.3629 116.751 43.1214C116.843 42.88 116.889 42.5971 116.889 42.2727C116.889 41.9484 116.844 41.6667 116.755 41.4276C116.665 41.1884 116.534 41.0038 116.364 40.8736C116.193 40.7434 115.986 40.6783 115.742 40.6783C115.494 40.6783 115.284 40.7457 115.114 40.8807C114.943 41.0156 114.814 41.2027 114.727 41.4418C114.639 41.6809 114.595 41.9579 114.595 42.2727C114.595 42.59 114.639 42.8705 114.727 43.1143C114.817 43.3558 114.946 43.5452 115.114 43.6825C115.284 43.8175 115.494 43.8849 115.742 43.8849ZM58.2145 53.7273V61H56.6768V55.1868H56.6342L54.9688 56.2308V54.8672L56.7692 53.7273H58.2145ZM62.6055 57.3636C62.6055 56.483 62.7227 55.6721 62.957 54.9311C63.1938 54.1901 63.5548 53.5036 64.0401 52.8714H65.4854C65.3008 53.1058 65.1291 53.3923 64.9705 53.7308C64.8119 54.067 64.6734 54.4363 64.555 54.8388C64.4367 55.2412 64.3443 55.6579 64.2781 56.0888C64.2118 56.5173 64.1786 56.9422 64.1786 57.3636C64.1786 57.9247 64.2354 58.4917 64.3491 59.0646C64.4651 59.6352 64.6213 60.1655 64.8178 60.6555C65.0167 61.1456 65.2392 61.5469 65.4854 61.8594H64.0401C63.5548 61.2273 63.1938 60.5407 62.957 59.7997C62.7227 59.0587 62.6055 58.2467 62.6055 57.3636ZM69.1404 61.0994C68.7664 61.0971 68.4054 61.0343 68.0574 60.9112C67.7117 60.7881 67.4016 60.5881 67.127 60.3111C66.8523 60.0341 66.6345 59.6671 66.4735 59.2102C66.3149 58.7533 66.2356 58.1922 66.2356 57.527C66.238 56.9162 66.3078 56.3705 66.4451 55.8899C66.5848 55.407 66.7837 54.9974 67.0417 54.6612C67.3021 54.325 67.6135 54.0694 67.9757 53.8942C68.3379 53.7166 68.7439 53.6278 69.1937 53.6278C69.679 53.6278 70.1075 53.7225 70.4792 53.9119C70.8509 54.099 71.1492 54.3535 71.3741 54.6754C71.6014 54.9974 71.7387 55.3584 71.786 55.7585H70.2697C70.2105 55.5052 70.0862 55.3063 69.8968 55.1619C69.7074 55.0175 69.4731 54.9453 69.1937 54.9453C68.7202 54.9453 68.3604 55.1513 68.1142 55.5632C67.8703 55.9751 67.746 56.535 67.7413 57.2429H67.791C67.8999 57.0275 68.0467 56.844 68.2314 56.6925C68.4184 56.5386 68.6303 56.4214 68.867 56.3409C69.1061 56.258 69.3583 56.2166 69.6234 56.2166C70.0543 56.2166 70.4378 56.3184 70.774 56.522C71.1101 56.7232 71.3753 57.0002 71.5694 57.353C71.7636 57.7057 71.8606 58.1094 71.8606 58.5639C71.8606 59.0563 71.7458 59.4943 71.5162 59.8778C71.2889 60.2614 70.9705 60.562 70.5609 60.7798C70.1537 60.9953 69.6802 61.1018 69.1404 61.0994ZM69.1333 59.892C69.3701 59.892 69.582 59.8352 69.769 59.7216C69.956 59.608 70.1028 59.4541 70.2093 59.2599C70.3159 59.0658 70.3691 58.848 70.3691 58.6065C70.3691 58.3651 70.3159 58.1484 70.2093 57.9567C70.1052 57.7649 69.9608 57.6122 69.7761 57.4986C69.5914 57.3849 69.3807 57.3281 69.144 57.3281C68.9664 57.3281 68.8019 57.3613 68.6504 57.4276C68.5012 57.4938 68.3699 57.5862 68.2562 57.7045C68.1449 57.8229 68.0574 57.9602 67.9934 58.1165C67.9295 58.2704 67.8975 58.4349 67.8975 58.6101C67.8975 58.8445 67.9508 59.0587 68.0574 59.2528C68.1663 59.447 68.313 59.602 68.4977 59.718C68.6847 59.834 68.8966 59.892 69.1333 59.892ZM77.3613 56.7635V57.9638H72.3613V56.7635H77.3613ZM78.2385 61L81.2534 55.0341V54.9844H77.7413V53.7273H82.8443V55.0021L79.8258 61H78.2385ZM89.128 55.5455V56.6818H85.8432V55.5455H89.128ZM86.589 54.2386H88.1017V59.3239C88.1017 59.4635 88.123 59.5724 88.1657 59.6506C88.2083 59.7263 88.2675 59.7796 88.3432 59.8104C88.4213 59.8411 88.5113 59.8565 88.6131 59.8565C88.6841 59.8565 88.7551 59.8506 88.8262 59.8388C88.8972 59.8246 88.9516 59.8139 88.9895 59.8068L89.2275 60.9325C89.1517 60.9562 89.0452 60.9834 88.9078 61.0142C88.7705 61.0473 88.6036 61.0675 88.4071 61.0746C88.0426 61.0888 87.723 61.0402 87.4483 60.929C87.1761 60.8177 86.9642 60.6449 86.8127 60.4105C86.6612 60.1761 86.5866 59.8802 86.589 59.5227V54.2386ZM93.6113 58.6776V55.5455H95.1241V61H93.6717V60.0092H93.6149C93.4918 60.3288 93.287 60.5857 93.0005 60.7798C92.7164 60.974 92.3696 61.071 91.96 61.071C91.5955 61.071 91.2747 60.9882 90.9977 60.8224C90.7207 60.6567 90.5041 60.4212 90.3478 60.1158C90.194 59.8104 90.1158 59.4446 90.1135 59.0185V55.5455H91.6262V58.7486C91.6286 59.0705 91.715 59.325 91.8855 59.5121C92.0559 59.6991 92.2844 59.7926 92.5708 59.7926C92.7531 59.7926 92.9236 59.7512 93.0822 59.6683C93.2408 59.5831 93.3687 59.4576 93.4657 59.2919C93.5652 59.1262 93.6137 58.9214 93.6113 58.6776ZM98.7987 61.1065C98.247 61.1065 97.77 60.9893 97.3675 60.755C96.9674 60.5182 96.6585 60.1892 96.4407 59.7678C96.2229 59.344 96.114 58.8527 96.114 58.294C96.114 57.7306 96.2229 57.2382 96.4407 56.8168C96.6585 56.393 96.9674 56.0639 97.3675 55.8295C97.77 55.5928 98.247 55.4744 98.7987 55.4744C99.3503 55.4744 99.8261 55.5928 100.226 55.8295C100.629 56.0639 100.939 56.393 101.157 56.8168C101.374 57.2382 101.483 57.7306 101.483 58.294C101.483 58.8527 101.374 59.344 101.157 59.7678C100.939 60.1892 100.629 60.5182 100.226 60.755C99.8261 60.9893 99.3503 61.1065 98.7987 61.1065ZM98.8058 59.9347C99.0567 59.9347 99.2662 59.8636 99.4343 59.7216C99.6024 59.5772 99.729 59.3807 99.8143 59.1321C99.9019 58.8835 99.9457 58.6006 99.9457 58.2834C99.9457 57.9661 99.9019 57.6832 99.8143 57.4347C99.729 57.1861 99.6024 56.9896 99.4343 56.8452C99.2662 56.7008 99.0567 56.6286 98.8058 56.6286C98.5524 56.6286 98.3394 56.7008 98.1665 56.8452C97.9961 56.9896 97.8671 57.1861 97.7795 57.4347C97.6942 57.6832 97.6516 57.9661 97.6516 58.2834C97.6516 58.6006 97.6942 58.8835 97.7795 59.1321C97.8671 59.3807 97.9961 59.5772 98.1665 59.7216C98.3394 59.8636 98.5524 59.9347 98.8058 59.9347ZM99.2212 53.8835L100.62 54.9879H99.5799L98.7915 54.3665L97.9925 54.9879H96.9521L98.3512 53.8835H99.2212ZM100.944 54.3665H100.159L100.091 53.8338C100.295 53.8243 100.443 53.7983 100.535 53.7557C100.627 53.7131 100.674 53.6503 100.674 53.5675C100.674 53.4586 100.616 53.3852 100.5 53.3473C100.384 53.3094 100.239 53.2905 100.066 53.2905L100.102 52.7188C100.583 52.7188 100.949 52.7898 101.203 52.9318C101.456 53.0715 101.583 53.2692 101.583 53.5249C101.583 53.7024 101.515 53.8385 101.38 53.9332C101.248 54.0256 101.102 54.0848 100.944 54.1108V54.3665ZM102.467 61V55.5455H103.98V61H102.467ZM103.227 54.8423C103.002 54.8423 102.809 54.7678 102.648 54.6186C102.489 54.4671 102.41 54.286 102.41 54.0753C102.41 53.867 102.489 53.6882 102.648 53.5391C102.809 53.3875 103.002 53.3118 103.227 53.3118C103.452 53.3118 103.644 53.3875 103.802 53.5391C103.963 53.6882 104.044 53.867 104.044 54.0753C104.044 54.286 103.963 54.4671 103.802 54.6186C103.644 54.7678 103.452 54.8423 103.227 54.8423ZM108.083 58.0845C108.083 58.9676 107.965 59.7796 107.728 60.5206C107.494 61.2616 107.134 61.9482 106.648 62.5803H105.203C105.388 62.3459 105.559 62.0594 105.718 61.7209C105.877 61.3823 106.015 61.013 106.134 60.6129C106.252 60.2105 106.344 59.7938 106.411 59.3629C106.477 58.9321 106.51 58.5059 106.51 58.0845C106.51 57.5234 106.452 56.9576 106.336 56.3871C106.222 55.8142 106.066 55.2839 105.867 54.7962C105.671 54.3061 105.449 53.9048 105.203 53.5923H106.648C107.134 54.2244 107.494 54.911 107.728 55.652C107.965 56.393 108.083 57.2038 108.083 58.0845ZM115.338 57.4134V58.6136H112.021V57.4134H115.338ZM55.1281 77V69.7273H57.7915C58.3076 69.7273 58.7349 69.8125 59.0734 69.983C59.412 70.151 59.6653 70.3795 59.8334 70.6683C60.0015 70.9548 60.0855 71.2779 60.0855 71.6378C60.0855 71.9408 60.0299 72.1965 59.9186 72.4048C59.8073 72.6108 59.6582 72.7765 59.4711 72.902C59.2865 73.0251 59.0829 73.1151 58.8604 73.1719V73.2429C59.1018 73.2547 59.3374 73.3329 59.567 73.4773C59.799 73.6193 59.9908 73.8217 60.1423 74.0845C60.2938 74.3473 60.3696 74.6669 60.3696 75.0433C60.3696 75.415 60.282 75.7488 60.1068 76.0447C59.934 76.3383 59.6665 76.5715 59.3042 76.7443C58.942 76.9148 58.4792 77 57.9157 77H55.1281ZM56.2254 76.0589H57.8092C58.3348 76.0589 58.7112 75.9571 58.9385 75.7536C59.1657 75.55 59.2794 75.2955 59.2794 74.9901C59.2794 74.7604 59.2214 74.5497 59.1054 74.358C58.9894 74.1662 58.8237 74.0135 58.6082 73.8999C58.3952 73.7862 58.1418 73.7294 57.8483 73.7294H56.2254V76.0589ZM56.2254 72.8736H57.6956C57.9418 72.8736 58.1631 72.8262 58.3596 72.7315C58.5585 72.6368 58.7159 72.5043 58.8319 72.3338C58.9503 72.161 59.0095 71.9574 59.0095 71.723C59.0095 71.4223 58.9041 71.1702 58.6934 70.9666C58.4827 70.763 58.1596 70.6612 57.724 70.6612H56.2254V72.8736ZM63.9367 77.1101C63.3993 77.1101 62.9365 76.9953 62.5482 76.7656C62.1623 76.5336 61.864 76.2081 61.6533 75.7891C61.445 75.3677 61.3408 74.8741 61.3408 74.3082C61.3408 73.7495 61.445 73.2571 61.6533 72.831C61.864 72.4048 62.1576 72.0722 62.534 71.8331C62.9128 71.594 63.3555 71.4744 63.8621 71.4744C64.1699 71.4744 64.4682 71.5253 64.757 71.6271C65.0458 71.7289 65.3051 71.8887 65.5347 72.1065C65.7644 72.3243 65.9455 72.6072 66.078 72.9553C66.2106 73.3009 66.2769 73.7211 66.2769 74.2159V74.5923H61.941V73.7969H65.2364C65.2364 73.5175 65.1796 73.2701 65.066 73.0547C64.9523 72.8369 64.7925 72.6652 64.5866 72.5398C64.383 72.4143 64.1439 72.3516 63.8692 72.3516C63.5709 72.3516 63.3105 72.425 63.088 72.5717C62.8678 72.7161 62.6974 72.9055 62.5766 73.1399C62.4582 73.3719 62.3991 73.6241 62.3991 73.8963V74.5178C62.3991 74.8823 62.463 75.1925 62.5908 75.4482C62.721 75.7038 62.9021 75.8991 63.1341 76.0341C63.3662 76.1667 63.6372 76.233 63.9474 76.233C64.1486 76.233 64.3321 76.2045 64.4978 76.1477C64.6635 76.0885 64.8067 76.0009 64.9275 75.8849C65.0482 75.7689 65.1405 75.6257 65.2045 75.4553L66.2094 75.6364C66.1289 75.9323 65.9845 76.1915 65.7762 76.4141C65.5702 76.6342 65.311 76.8059 64.9985 76.929C64.6884 77.0497 64.3344 77.1101 63.9367 77.1101ZM63.3827 70.8175L64.2137 69.1804H65.3323L64.2314 70.8175H63.3827ZM72.1434 77.1065C71.703 77.1065 71.31 76.9941 70.9644 76.7692C70.6211 76.5419 70.3512 76.2187 70.1547 75.7997C69.9606 75.3783 69.8635 74.8729 69.8635 74.2834C69.8635 73.6939 69.9618 73.1896 70.1583 72.7706C70.3572 72.3516 70.6294 72.0308 70.9751 71.8082C71.3207 71.5857 71.7125 71.4744 72.1505 71.4744C72.489 71.4744 72.7613 71.5312 72.9672 71.6449C73.1756 71.7562 73.3366 71.8864 73.4502 72.0355C73.5662 72.1847 73.6562 72.3161 73.7201 72.4297H73.784V69.7273H74.8458V77H73.8089V76.1513H73.7201C73.6562 76.2673 73.5638 76.3999 73.4431 76.549C73.3247 76.6982 73.1614 76.8284 72.953 76.9396C72.7447 77.0509 72.4748 77.1065 72.1434 77.1065ZM72.3778 76.201C72.6831 76.201 72.9412 76.1205 73.1519 75.9595C73.365 75.7962 73.526 75.5701 73.6349 75.2812C73.7461 74.9924 73.8018 74.6562 73.8018 74.2727C73.8018 73.8939 73.7473 73.5625 73.6384 73.2784C73.5295 72.9943 73.3697 72.773 73.159 72.6143C72.9483 72.4557 72.6879 72.3764 72.3778 72.3764C72.0581 72.3764 71.7918 72.4593 71.5787 72.625C71.3657 72.7907 71.2047 73.0168 71.0958 73.3033C70.9893 73.5897 70.936 73.9129 70.936 74.2727C70.936 74.6373 70.9904 74.9652 71.0993 75.2564C71.2082 75.5476 71.3692 75.7784 71.5823 75.9489C71.7977 76.117 72.0629 76.201 72.3778 76.201ZM72.3103 71.1087V70.3736H75.5738V71.1087H72.3103ZM77.9486 77.1207C77.603 77.1207 77.2905 77.0568 77.0111 76.929C76.7317 76.7988 76.5104 76.6106 76.347 76.3643C76.186 76.1181 76.1056 75.8163 76.1056 75.4588C76.1056 75.151 76.1647 74.8977 76.2831 74.6989C76.4015 74.5 76.5613 74.3426 76.7625 74.2266C76.9637 74.1106 77.1887 74.023 77.4372 73.9638C77.6858 73.9046 77.9391 73.8596 78.1972 73.8288C78.5239 73.791 78.789 73.7602 78.9926 73.7365C79.1962 73.7105 79.3442 73.669 79.4365 73.6122C79.5289 73.5554 79.575 73.4631 79.575 73.3352V73.3104C79.575 73.0002 79.4874 72.7599 79.3122 72.5895C79.1394 72.419 78.8814 72.3338 78.5381 72.3338C78.1806 72.3338 77.8989 72.4131 77.6929 72.5717C77.4893 72.728 77.3485 72.902 77.2703 73.0938L76.2725 72.8665C76.3908 72.535 76.5637 72.2675 76.7909 72.0639C77.0206 71.858 77.2845 71.7088 77.5828 71.6165C77.8811 71.5218 78.1948 71.4744 78.5239 71.4744C78.7417 71.4744 78.9725 71.5005 79.2164 71.5526C79.4626 71.6023 79.6922 71.6946 79.9053 71.8295C80.1207 71.9645 80.2971 72.1574 80.4344 72.4084C80.5717 72.657 80.6404 72.9801 80.6404 73.3778V77H79.6034V76.2543H79.5608C79.4922 76.3916 79.3892 76.5265 79.2519 76.6591C79.1146 76.7917 78.9382 76.9018 78.7227 76.9893C78.5073 77.0769 78.2493 77.1207 77.9486 77.1207ZM78.1794 76.2685C78.473 76.2685 78.7239 76.2105 78.9323 76.0945C79.143 75.9785 79.3028 75.8269 79.4117 75.6399C79.5229 75.4505 79.5786 75.2481 79.5786 75.0327V74.3295C79.5407 74.3674 79.4673 74.4029 79.3584 74.4361C79.2519 74.4669 79.1299 74.4941 78.9926 74.5178C78.8553 74.5391 78.7216 74.5592 78.5914 74.5781C78.4611 74.5947 78.3522 74.6089 78.2646 74.6207C78.0587 74.6468 77.8705 74.6906 77.7 74.7521C77.5319 74.8137 77.397 74.9025 77.2952 75.0185C77.1958 75.1321 77.146 75.2836 77.146 75.473C77.146 75.7358 77.2431 75.9347 77.4372 76.0696C77.6314 76.2022 77.8788 76.2685 78.1794 76.2685ZM77.5118 70.8849L76.798 70.8636C76.798 70.4706 76.9034 70.157 77.1141 69.9226C77.3271 69.6882 77.5899 69.571 77.9024 69.571C78.0468 69.571 78.1735 69.5959 78.2824 69.6456C78.3913 69.6929 78.4931 69.7486 78.5878 69.8125C78.6849 69.8741 78.7807 69.9297 78.8754 69.9794C78.9725 70.0268 79.0802 70.0504 79.1986 70.0504C79.3359 70.0504 79.4472 69.9983 79.5324 69.8942C79.62 69.79 79.6638 69.661 79.6638 69.5071L80.3634 69.5533C80.3634 69.9486 80.2568 70.2599 80.0438 70.4872C79.8307 70.7121 79.5691 70.8258 79.259 70.8281C79.0909 70.8281 78.9512 70.8045 78.8399 70.7571C78.731 70.7074 78.634 70.6518 78.5487 70.5902C78.4635 70.5263 78.3759 70.4695 78.286 70.4197C78.196 70.37 78.0883 70.3452 77.9628 70.3452C77.8302 70.3452 77.7213 70.3973 77.6361 70.5014C77.5532 70.6032 77.5118 70.7311 77.5118 70.8849ZM86.9987 77.1101C86.4707 77.1101 86.0162 76.9905 85.635 76.7514C85.2562 76.5099 84.9651 76.1773 84.7615 75.7536C84.5579 75.3298 84.4561 74.8445 84.4561 74.2976C84.4561 73.7436 84.5602 73.2547 84.7686 72.831C84.9769 72.4048 85.2704 72.0722 85.6492 71.8331C86.028 71.594 86.4743 71.4744 86.988 71.4744C87.4023 71.4744 87.7716 71.5514 88.096 71.7053C88.4203 71.8568 88.6819 72.0698 88.8808 72.3445C89.082 72.6191 89.2016 72.9399 89.2394 73.3068H88.2061C88.1492 73.0511 88.019 72.831 87.8154 72.6463C87.6142 72.4616 87.3443 72.3693 87.0058 72.3693C86.7098 72.3693 86.4506 72.4474 86.2281 72.6037C86.0079 72.7576 85.8363 72.9777 85.7132 73.2642C85.5901 73.5483 85.5285 73.8845 85.5285 74.2727C85.5285 74.6705 85.5889 75.0137 85.7096 75.3026C85.8303 75.5914 86.0008 75.8151 86.221 75.9737C86.4435 76.1323 86.7051 76.2116 87.0058 76.2116C87.207 76.2116 87.3893 76.175 87.5526 76.1016C87.7184 76.0258 87.8569 75.9181 87.9681 75.7784C88.0818 75.6387 88.1611 75.4706 88.2061 75.2741H89.2394C89.2016 75.6269 89.0867 75.9418 88.895 76.2188C88.7032 76.4957 88.4463 76.7135 88.1244 76.8722C87.8048 77.0308 87.4295 77.1101 86.9987 77.1101ZM92.6725 77.1101C92.1611 77.1101 91.7149 76.9929 91.3337 76.7585C90.9526 76.5241 90.6566 76.1963 90.4459 75.7749C90.2352 75.3535 90.1299 74.861 90.1299 74.2976C90.1299 73.7318 90.2352 73.237 90.4459 72.8132C90.6566 72.3894 90.9526 72.0604 91.3337 71.826C91.7149 71.5916 92.1611 71.4744 92.6725 71.4744C93.1839 71.4744 93.6301 71.5916 94.0113 71.826C94.3924 72.0604 94.6884 72.3894 94.8991 72.8132C95.1098 73.237 95.2151 73.7318 95.2151 74.2976C95.2151 74.861 95.1098 75.3535 94.8991 75.7749C94.6884 76.1963 94.3924 76.5241 94.0113 76.7585C93.6301 76.9929 93.1839 77.1101 92.6725 77.1101ZM92.676 76.2188C93.0075 76.2188 93.2821 76.1312 93.4999 75.956C93.7177 75.7808 93.8787 75.5476 93.9829 75.2564C94.0894 74.9652 94.1427 74.6444 94.1427 74.294C94.1427 73.946 94.0894 73.6264 93.9829 73.3352C93.8787 73.0417 93.7177 72.8061 93.4999 72.6286C93.2821 72.451 93.0075 72.3622 92.676 72.3622C92.3422 72.3622 92.0653 72.451 91.8451 72.6286C91.6273 72.8061 91.4651 73.0417 91.3586 73.3352C91.2544 73.6264 91.2023 73.946 91.2023 74.294C91.2023 74.6444 91.2544 74.9652 91.3586 75.2564C91.4651 75.5476 91.6273 75.7808 91.8451 75.956C92.0653 76.1312 92.3422 76.2188 92.676 76.2188ZM92.2357 70.8175L93.0667 69.1804H94.1853L93.0844 70.8175H92.2357ZM100.109 73.7614V77H99.0468V71.5455H100.066V72.4332H100.133C100.259 72.1444 100.455 71.9124 100.723 71.7372C100.993 71.562 101.333 71.4744 101.742 71.4744C102.114 71.4744 102.439 71.5526 102.719 71.7088C102.998 71.8627 103.215 72.0923 103.369 72.3977C103.522 72.7031 103.599 73.0807 103.599 73.5305V77H102.538V73.6584C102.538 73.263 102.435 72.9541 102.229 72.7315C102.023 72.5066 101.74 72.3942 101.38 72.3942C101.134 72.3942 100.915 72.4474 100.723 72.554C100.534 72.6605 100.383 72.8168 100.272 73.0227C100.163 73.2263 100.109 73.4725 100.109 73.7614ZM107.374 77.1101C106.837 77.1101 106.374 76.9953 105.986 76.7656C105.6 76.5336 105.302 76.2081 105.091 75.7891C104.882 75.3677 104.778 74.8741 104.778 74.3082C104.778 73.7495 104.882 73.2571 105.091 72.831C105.302 72.4048 105.595 72.0722 105.972 71.8331C106.35 71.594 106.793 71.4744 107.3 71.4744C107.607 71.4744 107.906 71.5253 108.195 71.6271C108.483 71.7289 108.743 71.8887 108.972 72.1065C109.202 72.3243 109.383 72.6072 109.516 72.9553C109.648 73.3009 109.714 73.7211 109.714 74.2159V74.5923H105.378V73.7969H108.674C108.674 73.5175 108.617 73.2701 108.503 73.0547C108.39 72.8369 108.23 72.6652 108.024 72.5398C107.82 72.4143 107.581 72.3516 107.307 72.3516C107.008 72.3516 106.748 72.425 106.525 72.5717C106.305 72.7161 106.135 72.9055 106.014 73.1399C105.896 73.3719 105.837 73.6241 105.837 73.8963V74.5178C105.837 74.8823 105.9 75.1925 106.028 75.4482C106.159 75.7038 106.34 75.8991 106.572 76.0341C106.804 76.1667 107.075 76.233 107.385 76.233C107.586 76.233 107.77 76.2045 107.935 76.1477C108.101 76.0885 108.244 76.0009 108.365 75.8849C108.486 75.7689 108.578 75.6257 108.642 75.4553L109.647 75.6364C109.566 75.9323 109.422 76.1915 109.214 76.4141C109.008 76.6342 108.748 76.8059 108.436 76.929C108.126 77.0497 107.772 77.1101 107.374 77.1101ZM107.648 69.6776L109.097 70.9098H108.049L107.261 70.2067L106.469 70.9098H105.425L106.856 69.6776H107.648ZM105.062 68.8182L105.794 70.1214H105.03L103.972 68.8182H105.062ZM111.954 73.7614V77H110.892V71.5455H111.912V72.4332H111.979C112.105 72.1444 112.301 71.9124 112.569 71.7372C112.839 71.562 113.178 71.4744 113.588 71.4744C113.959 71.4744 114.285 71.5526 114.564 71.7088C114.844 71.8627 115.06 72.0923 115.214 72.3977C115.368 72.7031 115.445 73.0807 115.445 73.5305V77H114.383V73.6584C114.383 73.263 114.28 72.9541 114.074 72.7315C113.868 72.5066 113.585 72.3942 113.226 72.3942C112.979 72.3942 112.76 72.4474 112.569 72.554C112.379 72.6605 112.229 72.8168 112.118 73.0227C112.009 73.2263 111.954 73.4725 111.954 73.7614ZM58.8439 87.5455V88.3977H55.8645V87.5455H58.8439ZM56.6635 86.2386H57.7253V91.3984C57.7253 91.6044 57.7561 91.7595 57.8176 91.8636C57.8792 91.9654 57.9585 92.0353 58.0556 92.0732C58.155 92.1087 58.2627 92.1264 58.3787 92.1264C58.464 92.1264 58.5385 92.1205 58.6025 92.1087C58.6664 92.0968 58.7161 92.0874 58.7516 92.0803L58.9434 92.9574C58.8818 92.9811 58.7942 93.0047 58.6806 93.0284C58.5669 93.0545 58.4249 93.0687 58.2544 93.071C57.9751 93.0758 57.7147 93.026 57.4732 92.9219C57.2317 92.8177 57.0364 92.6567 56.8873 92.4389C56.7381 92.2211 56.6635 91.9477 56.6635 91.6186V86.2386ZM61.6058 93.1207C61.2602 93.1207 60.9477 93.0568 60.6683 92.929C60.389 92.7988 60.1676 92.6106 60.0043 92.3643C59.8433 92.1181 59.7628 91.8163 59.7628 91.4588C59.7628 91.151 59.822 90.8977 59.9403 90.6989C60.0587 90.5 60.2185 90.3426 60.4197 90.2266C60.621 90.1106 60.8459 90.023 61.0945 89.9638C61.343 89.9046 61.5964 89.8596 61.8544 89.8288C62.1811 89.791 62.4463 89.7602 62.6499 89.7365C62.8535 89.7105 63.0014 89.669 63.0938 89.6122C63.1861 89.5554 63.2322 89.4631 63.2322 89.3352V89.3104C63.2322 89.0002 63.1446 88.7599 62.9695 88.5895C62.7966 88.419 62.5386 88.3338 62.1953 88.3338C61.8378 88.3338 61.5561 88.4131 61.3501 88.5717C61.1465 88.728 61.0057 88.902 60.9276 89.0938L59.9297 88.8665C60.0481 88.535 60.2209 88.2675 60.4482 88.0639C60.6778 87.858 60.9418 87.7088 61.2401 87.6165C61.5384 87.5218 61.852 87.4744 62.1811 87.4744C62.3989 87.4744 62.6297 87.5005 62.8736 87.5526C63.1198 87.6023 63.3494 87.6946 63.5625 87.8295C63.7779 87.9645 63.9543 88.1574 64.0916 88.4084C64.2289 88.657 64.2976 88.9801 64.2976 89.3778V93H63.2607V92.2543H63.218C63.1494 92.3916 63.0464 92.5265 62.9091 92.6591C62.7718 92.7917 62.5954 92.9018 62.38 92.9893C62.1645 93.0769 61.9065 93.1207 61.6058 93.1207ZM61.8366 92.2685C62.1302 92.2685 62.3812 92.2105 62.5895 92.0945C62.8002 91.9785 62.96 91.8269 63.0689 91.6399C63.1802 91.4505 63.2358 91.2481 63.2358 91.0327V90.3295C63.1979 90.3674 63.1245 90.4029 63.0156 90.4361C62.9091 90.4669 62.7872 90.4941 62.6499 90.5178C62.5125 90.5391 62.3788 90.5592 62.2486 90.5781C62.1184 90.5947 62.0095 90.6089 61.9219 90.6207C61.7159 90.6468 61.5277 90.6906 61.3572 90.7521C61.1892 90.8137 61.0542 90.9025 60.9524 91.0185C60.853 91.1321 60.8033 91.2836 60.8033 91.473C60.8033 91.7358 60.9003 91.9347 61.0945 92.0696C61.2886 92.2022 61.536 92.2685 61.8366 92.2685ZM62.6712 86.7926H61.8331L61.8047 86.0682C62.0556 86.0563 62.2332 86.0232 62.3374 85.9688C62.4415 85.9119 62.4924 85.8303 62.4901 85.7237C62.4924 85.5959 62.4202 85.5047 62.2734 85.4503C62.129 85.3958 61.9527 85.3686 61.7443 85.3686L61.7763 84.7827C62.3137 84.7827 62.7209 84.8679 62.9979 85.0384C63.2772 85.2088 63.4157 85.4384 63.4134 85.7273C63.4157 85.9616 63.3388 86.1345 63.1825 86.2457C63.0286 86.3546 62.8582 86.4233 62.6712 86.4517V86.7926ZM66.7736 89.7614V93H65.7118V87.5455H66.731V88.4332H66.7985C66.9239 88.1444 67.1204 87.9124 67.388 87.7372C67.6578 87.562 67.9976 87.4744 68.4071 87.4744C68.7788 87.4744 69.1043 87.5526 69.3837 87.7088C69.6631 87.8627 69.8797 88.0923 70.0336 88.3977C70.1874 88.7031 70.2644 89.0807 70.2644 89.5305V93H69.2026V89.6584C69.2026 89.263 69.0996 88.9541 68.8936 88.7315C68.6877 88.5066 68.4048 88.3942 68.0449 88.3942C67.7987 88.3942 67.5797 88.4474 67.388 88.554C67.1986 88.6605 67.0482 88.8168 66.937 89.0227C66.8281 89.2263 66.7736 89.4725 66.7736 89.7614ZM73.9753 95.1591C73.5421 95.1591 73.1692 95.1023 72.8567 94.9886C72.5466 94.875 72.2933 94.7247 72.0968 94.5376C71.9003 94.3506 71.7535 94.1458 71.6564 93.9233L72.5691 93.5469C72.633 93.651 72.7182 93.7611 72.8248 93.8771C72.9337 93.9955 73.0804 94.0961 73.2651 94.179C73.4521 94.2618 73.6924 94.3033 73.986 94.3033C74.3884 94.3033 74.7211 94.205 74.9838 94.0085C75.2466 93.8144 75.378 93.5043 75.378 93.0781V92.0057H75.3105C75.2466 92.1217 75.1543 92.2507 75.0336 92.3928C74.9152 92.5348 74.7518 92.6579 74.5435 92.7621C74.3352 92.8662 74.0641 92.9183 73.7303 92.9183C73.2994 92.9183 72.9112 92.8177 72.5655 92.6165C72.2222 92.4129 71.95 92.1134 71.7488 91.718C71.5499 91.3203 71.4505 90.8314 71.4505 90.2514C71.4505 89.6714 71.5487 89.1742 71.7452 88.7599C71.9441 88.3456 72.2163 88.0284 72.562 87.8082C72.9076 87.5857 73.2994 87.4744 73.7374 87.4744C74.0759 87.4744 74.3494 87.5312 74.5577 87.6449C74.766 87.7562 74.9282 87.8864 75.0442 88.0355C75.1626 88.1847 75.2537 88.3161 75.3176 88.4297H75.3958V87.5455H76.4363V93.1207C76.4363 93.5895 76.3274 93.9742 76.1096 94.2749C75.8917 94.5755 75.597 94.7981 75.2253 94.9425C74.856 95.0869 74.4393 95.1591 73.9753 95.1591ZM73.9647 92.0376C74.2701 92.0376 74.5281 91.9666 74.7388 91.8246C74.9519 91.6802 75.1129 91.4742 75.2218 91.2067C75.333 90.9368 75.3887 90.6136 75.3887 90.2372C75.3887 89.8703 75.3342 89.5471 75.2253 89.2678C75.1164 88.9884 74.9566 88.7706 74.7459 88.6143C74.5352 88.4557 74.2748 88.3764 73.9647 88.3764C73.6451 88.3764 73.3787 88.4593 73.1657 88.625C72.9526 88.7884 72.7916 89.0109 72.6827 89.2926C72.5762 89.5743 72.5229 89.8892 72.5229 90.2372C72.5229 90.5947 72.5774 90.9084 72.6863 91.1783C72.7952 91.4482 72.9561 91.6589 73.1692 91.8104C73.3846 91.9619 73.6498 92.0376 73.9647 92.0376ZM82.8043 93.1101C82.2764 93.1101 81.8219 92.9905 81.4407 92.7514C81.0619 92.5099 80.7707 92.1773 80.5671 91.7536C80.3635 91.3298 80.2617 90.8445 80.2617 90.2976C80.2617 89.7436 80.3659 89.2547 80.5742 88.831C80.7826 88.4048 81.0761 88.0722 81.4549 87.8331C81.8337 87.594 82.2799 87.4744 82.7937 87.4744C83.208 87.4744 83.5773 87.5514 83.9016 87.7053C84.226 87.8568 84.4876 88.0698 84.6864 88.3445C84.8877 88.6191 85.0072 88.9399 85.0451 89.3068H84.0117C83.9549 89.0511 83.8247 88.831 83.6211 88.6463C83.4199 88.4616 83.15 88.3693 82.8114 88.3693C82.5155 88.3693 82.2563 88.4474 82.0337 88.6037C81.8136 88.7576 81.6419 88.9777 81.5188 89.2642C81.3957 89.5483 81.3342 89.8845 81.3342 90.2727C81.3342 90.6705 81.3945 91.0137 81.5153 91.3026C81.636 91.5914 81.8065 91.8151 82.0266 91.9737C82.2492 92.1323 82.5108 92.2116 82.8114 92.2116C83.0127 92.2116 83.195 92.175 83.3583 92.1016C83.524 92.0258 83.6625 91.9181 83.7738 91.7784C83.8874 91.6387 83.9667 91.4706 84.0117 91.2741H85.0451C85.0072 91.6269 84.8924 91.9418 84.7006 92.2188C84.5089 92.4957 84.252 92.7135 83.93 92.8722C83.6104 93.0308 83.2352 93.1101 82.8043 93.1101ZM90.7402 87.1655H91.5605C91.5605 87.7242 91.4339 88.1657 91.1806 88.4901C90.9296 88.812 90.5011 88.973 89.8951 88.973V88.3764C90.1365 88.3764 90.3176 88.3267 90.4384 88.2273C90.5591 88.1255 90.6396 87.9846 90.6799 87.8047C90.7201 87.6224 90.7402 87.4093 90.7402 87.1655ZM88.4782 93.1101C87.9668 93.1101 87.5205 92.9929 87.1394 92.7585C86.7582 92.5241 86.4623 92.1963 86.2516 91.7749C86.0409 91.3535 85.9355 90.861 85.9355 90.2976C85.9355 89.7318 86.0409 89.237 86.2516 88.8132C86.4623 88.3894 86.7582 88.0604 87.1394 87.826C87.5205 87.5916 87.9668 87.4744 88.4782 87.4744C88.9895 87.4744 89.4358 87.5916 89.8169 87.826C90.1981 88.0604 90.494 88.3894 90.7047 88.8132C90.9154 89.237 91.0208 89.7318 91.0208 90.2976C91.0208 90.861 90.9154 91.3535 90.7047 91.7749C90.494 92.1963 90.1981 92.5241 89.8169 92.7585C89.4358 92.9929 88.9895 93.1101 88.4782 93.1101ZM88.4817 92.2188C88.8132 92.2188 89.0878 92.1312 89.3056 91.956C89.5234 91.7808 89.6844 91.5476 89.7885 91.2564C89.8951 90.9652 89.9483 90.6444 89.9483 90.294C89.9483 89.946 89.8951 89.6264 89.7885 89.3352C89.6844 89.0417 89.5234 88.8061 89.3056 88.6286C89.0878 88.451 88.8132 88.3622 88.4817 88.3622C88.1479 88.3622 87.8709 88.451 87.6507 88.6286C87.4329 88.8061 87.2708 89.0417 87.1642 89.3352C87.0601 89.6264 87.008 89.946 87.008 90.294C87.008 90.6444 87.0601 90.9652 87.1642 91.2564C87.2708 91.5476 87.4329 91.7808 87.6507 91.956C87.8709 92.1312 88.1479 92.2188 88.4817 92.2188ZM95.006 93V85.7273H96.0678V88.4297H96.1317C96.1933 88.3161 96.2821 88.1847 96.3981 88.0355C96.5141 87.8864 96.6751 87.7562 96.881 87.6449C97.087 87.5312 97.3593 87.4744 97.6978 87.4744C98.1381 87.4744 98.5311 87.5857 98.8768 87.8082C99.2224 88.0308 99.4935 88.3516 99.69 88.7706C99.8888 89.1896 99.9883 89.6939 99.9883 90.2834C99.9883 90.8729 99.89 91.3783 99.6935 91.7997C99.497 92.2187 99.2272 92.5419 98.8839 92.7692C98.5406 92.9941 98.1488 93.1065 97.7085 93.1065C97.377 93.1065 97.1059 93.0509 96.8952 92.9396C96.6869 92.8284 96.5236 92.6982 96.4052 92.549C96.2868 92.3999 96.1957 92.2673 96.1317 92.1513H96.043V93H95.006ZM96.0465 90.2727C96.0465 90.6562 96.1022 90.9924 96.2134 91.2812C96.3247 91.5701 96.4857 91.7962 96.6964 91.9595C96.9071 92.1205 97.1651 92.201 97.4705 92.201C97.7878 92.201 98.0529 92.117 98.266 91.9489C98.479 91.7784 98.64 91.5476 98.7489 91.2564C98.8602 90.9652 98.9158 90.6373 98.9158 90.2727C98.9158 89.9129 98.8614 89.5897 98.7525 89.3033C98.646 89.0168 98.485 88.7907 98.2695 88.625C98.0565 88.4593 97.7901 88.3764 97.4705 88.3764C97.1628 88.3764 96.9023 88.4557 96.6893 88.6143C96.4786 88.773 96.3188 88.9943 96.2099 89.2784C96.101 89.5625 96.0465 89.8939 96.0465 90.2727ZM102.768 93.1207C102.422 93.1207 102.11 93.0568 101.83 92.929C101.551 92.7988 101.33 92.6106 101.166 92.3643C101.005 92.1181 100.925 91.8163 100.925 91.4588C100.925 91.151 100.984 90.8977 101.102 90.6989C101.221 90.5 101.381 90.3426 101.582 90.2266C101.783 90.1106 102.008 90.023 102.257 89.9638C102.505 89.9046 102.758 89.8596 103.017 89.8288C103.343 89.791 103.608 89.7602 103.812 89.7365C104.016 89.7105 104.164 89.669 104.256 89.6122C104.348 89.5554 104.394 89.4631 104.394 89.3352V89.3104C104.394 89.0002 104.307 88.7599 104.132 88.5895C103.959 88.419 103.701 88.3338 103.357 88.3338C103 88.3338 102.718 88.4131 102.512 88.5717C102.309 88.728 102.168 88.902 102.09 89.0938L101.092 88.8665C101.21 88.535 101.383 88.2675 101.61 88.0639C101.84 87.858 102.104 87.7088 102.402 87.6165C102.7 87.5218 103.014 87.4744 103.343 87.4744C103.561 87.4744 103.792 87.5005 104.036 87.5526C104.282 87.6023 104.512 87.6946 104.725 87.8295C104.94 87.9645 105.116 88.1574 105.254 88.4084C105.391 88.657 105.46 88.9801 105.46 89.3778V93H104.423V92.2543H104.38C104.311 92.3916 104.209 92.5265 104.071 92.6591C103.934 92.7917 103.758 92.9018 103.542 92.9893C103.327 93.0769 103.069 93.1207 102.768 93.1207ZM102.999 92.2685C103.292 92.2685 103.543 92.2105 103.752 92.0945C103.962 91.9785 104.122 91.8269 104.231 91.6399C104.342 91.4505 104.398 91.2481 104.398 91.0327V90.3295C104.36 90.3674 104.287 90.4029 104.178 90.4361C104.071 90.4669 103.949 90.4941 103.812 90.5178C103.675 90.5391 103.541 90.5592 103.411 90.5781C103.28 90.5947 103.172 90.6089 103.084 90.6207C102.878 90.6468 102.69 90.6906 102.519 90.7521C102.351 90.8137 102.216 90.9025 102.115 91.0185C102.015 91.1321 101.965 91.2836 101.965 91.473C101.965 91.7358 102.062 91.9347 102.257 92.0696C102.451 92.2022 102.698 92.2685 102.999 92.2685ZM103.833 86.7926H102.995L102.967 86.0682C103.218 86.0563 103.395 86.0232 103.499 85.9688C103.604 85.9119 103.655 85.8303 103.652 85.7237C103.655 85.5959 103.582 85.5047 103.436 85.4503C103.291 85.3958 103.115 85.3686 102.906 85.3686L102.938 84.7827C103.476 84.7827 103.883 84.8679 104.16 85.0384C104.439 85.2088 104.578 85.4384 104.575 85.7273C104.578 85.9616 104.501 86.1345 104.345 86.2457C104.191 86.3546 104.02 86.4233 103.833 86.4517V86.7926ZM107.936 89.7614V93H106.874V87.5455H107.893V88.4332H107.961C108.086 88.1444 108.283 87.9124 108.55 87.7372C108.82 87.562 109.16 87.4744 109.569 87.4744C109.941 87.4744 110.266 87.5526 110.546 87.7088C110.825 87.8627 111.042 88.0923 111.196 88.3977C111.35 88.7031 111.426 89.0807 111.426 89.5305V93H110.365V89.6584C110.365 89.263 110.262 88.9541 110.056 88.7315C109.85 88.5066 109.567 88.3942 109.207 88.3942C108.961 88.3942 108.742 88.4474 108.55 88.554C108.361 88.6605 108.21 88.8168 108.099 89.0227C107.99 89.2263 107.936 89.4725 107.936 89.7614ZM114.232 92.0057L114.179 92.3928C114.143 92.6768 114.083 92.9728 113.998 93.2805C113.915 93.5907 113.828 93.8783 113.738 94.1435C113.651 94.4086 113.578 94.6193 113.522 94.7756H112.769C112.8 94.6288 112.842 94.4299 112.897 94.179C112.951 93.9304 113.004 93.6522 113.056 93.3445C113.109 93.0367 113.148 92.723 113.174 92.4034L113.209 92.0057H114.232ZM55.1871 109.11C54.6592 109.11 54.2047 108.991 53.8235 108.751C53.4447 108.51 53.1535 108.177 52.9499 107.754C52.7463 107.33 52.6445 106.844 52.6445 106.298C52.6445 105.744 52.7487 105.255 52.957 104.831C53.1654 104.405 53.4589 104.072 53.8377 103.833C54.2165 103.594 54.6628 103.474 55.1765 103.474C55.5908 103.474 55.9601 103.551 56.2844 103.705C56.6088 103.857 56.8704 104.07 57.0692 104.344C57.2705 104.619 57.39 104.94 57.4279 105.307H56.3945C56.3377 105.051 56.2075 104.831 56.0039 104.646C55.8027 104.462 55.5328 104.369 55.1942 104.369C54.8983 104.369 54.6391 104.447 54.4165 104.604C54.1964 104.758 54.0247 104.978 53.9016 105.264C53.7785 105.548 53.717 105.884 53.717 106.273C53.717 106.67 53.7773 107.014 53.8981 107.303C54.0188 107.591 54.1893 107.815 54.4094 107.974C54.632 108.132 54.8936 108.212 55.1942 108.212C55.3955 108.212 55.5778 108.175 55.7411 108.102C55.9068 108.026 56.0453 107.918 56.1566 107.778C56.2702 107.639 56.3496 107.471 56.3945 107.274H57.4279C57.39 107.627 57.2752 107.942 57.0835 108.219C56.8917 108.496 56.6348 108.714 56.3129 108.872C55.9933 109.031 55.618 109.11 55.1871 109.11ZM60.1507 109.121C59.8051 109.121 59.4926 109.057 59.2132 108.929C58.9339 108.799 58.7125 108.611 58.5492 108.364C58.3882 108.118 58.3077 107.816 58.3077 107.459C58.3077 107.151 58.3669 106.898 58.4853 106.699C58.6036 106.5 58.7634 106.343 58.9647 106.227C59.1659 106.111 59.3908 106.023 59.6394 105.964C59.888 105.905 60.1413 105.86 60.3993 105.829C60.726 105.791 60.9912 105.76 61.1948 105.737C61.3984 105.71 61.5463 105.669 61.6387 105.612C61.731 105.555 61.7772 105.463 61.7772 105.335V105.31C61.7772 105 61.6896 104.76 61.5144 104.589C61.3416 104.419 61.0835 104.334 60.7402 104.334C60.3828 104.334 60.101 104.413 59.8951 104.572C59.6915 104.728 59.5506 104.902 59.4725 105.094L58.4746 104.866C58.593 104.535 58.7658 104.268 58.9931 104.064C59.2227 103.858 59.4867 103.709 59.785 103.616C60.0833 103.522 60.397 103.474 60.726 103.474C60.9438 103.474 61.1747 103.5 61.4185 103.553C61.6647 103.602 61.8944 103.695 62.1074 103.83C62.3229 103.964 62.4992 104.157 62.6365 104.408C62.7739 104.657 62.8425 104.98 62.8425 105.378V109H61.8056V108.254H61.763C61.6943 108.392 61.5913 108.527 61.454 108.659C61.3167 108.792 61.1403 108.902 60.9249 108.989C60.7095 109.077 60.4514 109.121 60.1507 109.121ZM60.3816 108.268C60.6751 108.268 60.9261 108.21 61.1344 108.094C61.3451 107.978 61.5049 107.827 61.6138 107.64C61.7251 107.451 61.7807 107.248 61.7807 107.033V106.33C61.7428 106.367 61.6694 106.403 61.5605 106.436C61.454 106.467 61.3321 106.494 61.1948 106.518C61.0575 106.539 60.9237 106.559 60.7935 106.578C60.6633 106.595 60.5544 106.609 60.4668 106.621C60.2608 106.647 60.0726 106.691 59.9022 106.752C59.7341 106.814 59.5991 106.902 59.4973 107.018C59.3979 107.132 59.3482 107.284 59.3482 107.473C59.3482 107.736 59.4453 107.935 59.6394 108.07C59.8335 108.202 60.0809 108.268 60.3816 108.268ZM61.1699 101.678L62.6188 102.91H61.5712L60.7828 102.207L59.9909 102.91H58.9469L60.378 101.678H61.1699ZM58.5847 100.818L59.3162 102.121H58.5527L57.4945 100.818H58.5847ZM65.3185 105.761V109H64.2567V103.545H65.2759V104.433H65.3434C65.4689 104.144 65.6654 103.912 65.9329 103.737C66.2028 103.562 66.5425 103.474 66.9521 103.474C67.3237 103.474 67.6493 103.553 67.9286 103.709C68.208 103.863 68.4246 104.092 68.5785 104.398C68.7324 104.703 68.8093 105.081 68.8093 105.531V109H67.7475V105.658C67.7475 105.263 67.6445 104.954 67.4386 104.732C67.2326 104.507 66.9497 104.394 66.5898 104.394C66.3436 104.394 66.1246 104.447 65.9329 104.554C65.7435 104.661 65.5932 104.817 65.4819 105.023C65.373 105.226 65.3185 105.473 65.3185 105.761ZM72.8798 111.045V103.545H73.9167V104.43H74.0055C74.0671 104.316 74.1558 104.185 74.2718 104.036C74.3878 103.886 74.5488 103.756 74.7548 103.645C74.9608 103.531 75.233 103.474 75.5716 103.474C76.0119 103.474 76.4049 103.586 76.7505 103.808C77.0962 104.031 77.3672 104.352 77.5637 104.771C77.7626 105.19 77.862 105.694 77.862 106.283C77.862 106.873 77.7638 107.378 77.5673 107.8C77.3708 108.219 77.1009 108.542 76.7576 108.769C76.4144 108.994 76.0225 109.107 75.5822 109.107C75.2508 109.107 74.9797 109.051 74.769 108.94C74.5607 108.828 74.3973 108.698 74.2789 108.549C74.1606 108.4 74.0694 108.267 74.0055 108.151H73.9416V111.045H72.8798ZM73.9203 106.273C73.9203 106.656 73.9759 106.992 74.0872 107.281C74.1984 107.57 74.3594 107.796 74.5701 107.96C74.7808 108.121 75.0389 108.201 75.3443 108.201C75.6615 108.201 75.9267 108.117 76.1397 107.949C76.3528 107.778 76.5138 107.548 76.6227 107.256C76.734 106.965 76.7896 106.637 76.7896 106.273C76.7896 105.913 76.7351 105.59 76.6262 105.303C76.5197 105.017 76.3587 104.791 76.1433 104.625C75.9302 104.459 75.6639 104.376 75.3443 104.376C75.0365 104.376 74.7761 104.456 74.563 104.614C74.3523 104.773 74.1925 104.994 74.0836 105.278C73.9747 105.562 73.9203 105.894 73.9203 106.273ZM80.1135 105.761V109H79.0517V101.727H80.0993V104.433H80.1667C80.2946 104.14 80.4899 103.906 80.7527 103.734C81.0154 103.561 81.3587 103.474 81.7825 103.474C82.1565 103.474 82.4833 103.551 82.7626 103.705C83.0443 103.859 83.2621 104.089 83.416 104.394C83.5723 104.697 83.6504 105.076 83.6504 105.531V109H82.5886V105.658C82.5886 105.258 82.4856 104.948 82.2797 104.728C82.0737 104.505 81.7872 104.394 81.4203 104.394C81.1693 104.394 80.9444 104.447 80.7456 104.554C80.5491 104.661 80.394 104.817 80.2804 105.023C80.1691 105.226 80.1135 105.473 80.1135 105.761ZM86.6547 109.121C86.309 109.121 85.9965 109.057 85.7172 108.929C85.4378 108.799 85.2164 108.611 85.0531 108.364C84.8921 108.118 84.8116 107.816 84.8116 107.459C84.8116 107.151 84.8708 106.898 84.9892 106.699C85.1075 106.5 85.2673 106.343 85.4686 106.227C85.6698 106.111 85.8947 106.023 86.1433 105.964C86.3919 105.905 86.6452 105.86 86.9032 105.829C87.2299 105.791 87.4951 105.76 87.6987 105.737C87.9023 105.71 88.0502 105.669 88.1426 105.612C88.2349 105.555 88.2811 105.463 88.2811 105.335V105.31C88.2811 105 88.1935 104.76 88.0183 104.589C87.8455 104.419 87.5874 104.334 87.2441 104.334C86.8867 104.334 86.6049 104.413 86.399 104.572C86.1954 104.728 86.0545 104.902 85.9764 105.094L84.9785 104.866C85.0969 104.535 85.2697 104.268 85.497 104.064C85.7266 103.858 85.9906 103.709 86.2889 103.616C86.5872 103.522 86.9009 103.474 87.2299 103.474C87.4477 103.474 87.6786 103.5 87.9224 103.553C88.1686 103.602 88.3983 103.695 88.6113 103.83C88.8268 103.964 89.0031 104.157 89.1404 104.408C89.2778 104.657 89.3464 104.98 89.3464 105.378V109H88.3095V108.254H88.2669C88.1982 108.392 88.0952 108.527 87.9579 108.659C87.8206 108.792 87.6442 108.902 87.4288 108.989C87.2134 109.077 86.9553 109.121 86.6547 109.121ZM86.8855 108.268C87.179 108.268 87.43 108.21 87.6383 108.094C87.849 107.978 88.0088 107.827 88.1177 107.64C88.229 107.451 88.2846 107.248 88.2846 107.033V106.33C88.2467 106.367 88.1734 106.403 88.0645 106.436C87.9579 106.467 87.836 106.494 87.6987 106.518C87.5614 106.539 87.4276 106.559 87.2974 106.578C87.1672 106.595 87.0583 106.609 86.9707 106.621C86.7647 106.647 86.5765 106.691 86.4061 106.752C86.238 106.814 86.103 106.902 86.0012 107.018C85.9018 107.132 85.8521 107.284 85.8521 107.473C85.8521 107.736 85.9492 107.935 86.1433 108.07C86.3374 108.202 86.5848 108.268 86.8855 108.268ZM86.8464 102.817L87.6774 101.18H88.796L87.6951 102.817H86.8464ZM93.3068 103.545V104.398H90.3274V103.545H93.3068ZM91.1264 102.239H92.1882V107.398C92.1882 107.604 92.219 107.759 92.2805 107.864C92.3421 107.965 92.4214 108.035 92.5185 108.073C92.6179 108.109 92.7256 108.126 92.8416 108.126C92.9268 108.126 93.0014 108.121 93.0653 108.109C93.1293 108.097 93.179 108.087 93.2145 108.08L93.4062 108.957C93.3447 108.981 93.2571 109.005 93.1435 109.028C93.0298 109.054 92.8878 109.069 92.7173 109.071C92.438 109.076 92.1776 109.026 91.9361 108.922C91.6946 108.818 91.4993 108.657 91.3501 108.439C91.201 108.221 91.1264 107.948 91.1264 107.619V102.239ZM99.674 103.545V104.398H96.6946V103.545H99.674ZM97.4936 102.239H98.5554V107.398C98.5554 107.604 98.5862 107.759 98.6477 107.864C98.7093 107.965 98.7886 108.035 98.8857 108.073C98.9851 108.109 99.0928 108.126 99.2088 108.126C99.294 108.126 99.3686 108.121 99.4325 108.109C99.4964 108.097 99.5462 108.087 99.5817 108.08L99.7734 108.957C99.7119 108.981 99.6243 109.005 99.5107 109.028C99.397 109.054 99.255 109.069 99.0845 109.071C98.8052 109.076 98.5447 109.026 98.3033 108.922C98.0618 108.818 97.8665 108.657 97.7173 108.439C97.5682 108.221 97.4936 107.948 97.4936 107.619V102.239ZM100.849 109V103.545H101.875V104.412H101.932C102.031 104.118 102.206 103.888 102.457 103.719C102.711 103.549 102.997 103.464 103.317 103.464C103.383 103.464 103.461 103.466 103.551 103.471C103.643 103.476 103.715 103.482 103.768 103.489V104.504C103.725 104.492 103.649 104.479 103.54 104.465C103.431 104.449 103.323 104.44 103.214 104.44C102.963 104.44 102.739 104.494 102.542 104.6C102.348 104.704 102.194 104.85 102.081 105.037C101.967 105.222 101.91 105.432 101.91 105.669V109H100.849ZM104.686 109V103.545H105.748V109H104.686ZM105.223 102.704C105.038 102.704 104.879 102.642 104.747 102.519C104.617 102.394 104.551 102.245 104.551 102.072C104.551 101.897 104.617 101.747 104.747 101.624C104.879 101.499 105.038 101.436 105.223 101.436C105.407 101.436 105.565 101.499 105.695 101.624C105.828 101.747 105.894 101.897 105.894 102.072C105.894 102.245 105.828 102.394 105.695 102.519C105.565 102.642 105.407 102.704 105.223 102.704ZM109.528 109.11C108.99 109.11 108.527 108.995 108.139 108.766C107.753 108.534 107.455 108.208 107.244 107.789C107.036 107.368 106.932 106.874 106.932 106.308C106.932 105.75 107.036 105.257 107.244 104.831C107.455 104.405 107.748 104.072 108.125 103.833C108.504 103.594 108.946 103.474 109.453 103.474C109.761 103.474 110.059 103.525 110.348 103.627C110.637 103.729 110.896 103.889 111.126 104.107C111.355 104.324 111.536 104.607 111.669 104.955C111.801 105.301 111.868 105.721 111.868 106.216V106.592H107.532V105.797H110.827C110.827 105.518 110.77 105.27 110.657 105.055C110.543 104.837 110.383 104.665 110.177 104.54C109.974 104.414 109.735 104.352 109.46 104.352C109.162 104.352 108.901 104.425 108.679 104.572C108.459 104.716 108.288 104.906 108.167 105.14C108.049 105.372 107.99 105.624 107.99 105.896V106.518C107.99 106.882 108.054 107.192 108.182 107.448C108.312 107.704 108.493 107.899 108.725 108.034C108.957 108.167 109.228 108.233 109.538 108.233C109.739 108.233 109.923 108.205 110.089 108.148C110.254 108.089 110.398 108.001 110.518 107.885C110.639 107.769 110.731 107.626 110.795 107.455L111.8 107.636C111.72 107.932 111.575 108.192 111.367 108.414C111.161 108.634 110.902 108.806 110.589 108.929C110.279 109.05 109.925 109.11 109.528 109.11ZM109.876 101.741L111.243 102.974H110.309L109.4 102.168L108.501 102.974H107.567L108.931 101.741H109.876ZM111.445 102.31H110.785L110.763 101.699C110.962 101.685 111.109 101.657 111.204 101.617C111.298 101.577 111.346 101.508 111.346 101.411C111.346 101.298 111.284 101.219 111.161 101.177C111.038 101.132 110.883 101.109 110.696 101.109L110.728 100.605C111.173 100.605 111.51 100.677 111.74 100.822C111.97 100.964 112.084 101.158 112.084 101.404C112.084 101.605 112.018 101.754 111.885 101.852C111.753 101.946 111.606 102.004 111.445 102.026V102.31ZM114.108 105.761V109H113.046V103.545H114.065V104.433H114.132C114.258 104.144 114.454 103.912 114.722 103.737C114.992 103.562 115.332 103.474 115.741 103.474C116.113 103.474 116.438 103.553 116.718 103.709C116.997 103.863 117.214 104.092 117.368 104.398C117.521 104.703 117.598 105.081 117.598 105.531V109H116.537V105.658C116.537 105.263 116.434 104.954 116.228 104.732C116.022 104.507 115.739 104.394 115.379 104.394C115.133 104.394 114.914 104.447 114.722 104.554C114.533 104.661 114.382 104.817 114.271 105.023C114.162 105.226 114.108 105.473 114.108 105.761ZM57.6228 127.159C57.1895 127.159 56.8167 127.102 56.5042 126.989C56.194 126.875 55.9407 126.725 55.7442 126.538C55.5477 126.351 55.401 126.146 55.3039 125.923L56.2165 125.547C56.2805 125.651 56.3657 125.761 56.4722 125.877C56.5811 125.996 56.7279 126.096 56.9126 126.179C57.0996 126.262 57.3399 126.303 57.6334 126.303C58.0359 126.303 58.3685 126.205 58.6313 126.009C58.8941 125.814 59.0255 125.504 59.0255 125.078V124.006H58.958C58.8941 124.122 58.8018 124.251 58.681 124.393C58.5626 124.535 58.3993 124.658 58.191 124.762C57.9826 124.866 57.7116 124.918 57.3778 124.918C56.9469 124.918 56.5586 124.818 56.213 124.616C55.8697 124.413 55.5974 124.113 55.3962 123.718C55.1974 123.32 55.0979 122.831 55.0979 122.251C55.0979 121.671 55.1962 121.174 55.3927 120.76C55.5915 120.346 55.8638 120.028 56.2094 119.808C56.5551 119.586 56.9469 119.474 57.3849 119.474C57.7234 119.474 57.9968 119.531 58.2052 119.645C58.4135 119.756 58.5757 119.886 58.6917 120.036C58.81 120.185 58.9012 120.316 58.9651 120.43H59.0432V119.545H60.0837V125.121C60.0837 125.589 59.9748 125.974 59.757 126.275C59.5392 126.576 59.2445 126.798 58.8728 126.942C58.5035 127.087 58.0868 127.159 57.6228 127.159ZM57.6121 124.038C57.9175 124.038 58.1756 123.967 58.3863 123.825C58.5993 123.68 58.7603 123.474 58.8692 123.207C58.9805 122.937 59.0361 122.614 59.0361 122.237C59.0361 121.87 58.9817 121.547 58.8728 121.268C58.7639 120.988 58.6041 120.771 58.3934 120.614C58.1827 120.456 57.9223 120.376 57.6121 120.376C57.2925 120.376 57.0262 120.459 56.8131 120.625C56.6001 120.788 56.4391 121.011 56.3302 121.293C56.2236 121.574 56.1704 121.889 56.1704 122.237C56.1704 122.595 56.2248 122.908 56.3337 123.178C56.4426 123.448 56.6036 123.659 56.8167 123.81C57.0321 123.962 57.2973 124.038 57.6121 124.038ZM61.5077 125V119.545H62.5695V125H61.5077ZM62.0439 118.704C61.8593 118.704 61.7007 118.642 61.5681 118.519C61.4379 118.394 61.3728 118.245 61.3728 118.072C61.3728 117.897 61.4379 117.747 61.5681 117.624C61.7007 117.499 61.8593 117.436 62.0439 117.436C62.2286 117.436 62.386 117.499 62.5162 117.624C62.6488 117.747 62.7151 117.897 62.7151 118.072C62.7151 118.245 62.6488 118.394 62.5162 118.519C62.386 118.642 62.2286 118.704 62.0439 118.704ZM65.5853 125.121C65.2397 125.121 64.9272 125.057 64.6478 124.929C64.3685 124.799 64.1471 124.611 63.9838 124.364C63.8228 124.118 63.7423 123.816 63.7423 123.459C63.7423 123.151 63.8015 122.898 63.9198 122.699C64.0382 122.5 64.198 122.343 64.3992 122.227C64.6005 122.111 64.8254 122.023 65.074 121.964C65.3225 121.905 65.5758 121.86 65.8339 121.829C66.1606 121.791 66.4258 121.76 66.6294 121.737C66.8329 121.71 66.9809 121.669 67.0732 121.612C67.1656 121.555 67.2117 121.463 67.2117 121.335V121.31C67.2117 121 67.1241 120.76 66.949 120.589C66.7761 120.419 66.5181 120.334 66.1748 120.334C65.8173 120.334 65.5356 120.413 65.3296 120.572C65.126 120.728 64.9852 120.902 64.907 121.094L63.9092 120.866C64.0276 120.535 64.2004 120.268 64.4276 120.064C64.6573 119.858 64.9213 119.709 65.2195 119.616C65.5178 119.522 65.8315 119.474 66.1606 119.474C66.3784 119.474 66.6092 119.5 66.8531 119.553C67.0993 119.602 67.3289 119.695 67.542 119.83C67.7574 119.964 67.9338 120.157 68.0711 120.408C68.2084 120.657 68.2771 120.98 68.2771 121.378V125H67.2401V124.254H67.1975C67.1289 124.392 67.0259 124.527 66.8886 124.659C66.7513 124.792 66.5749 124.902 66.3595 124.989C66.144 125.077 65.886 125.121 65.5853 125.121ZM65.8161 124.268C66.1097 124.268 66.3606 124.21 66.569 124.094C66.7797 123.978 66.9395 123.827 67.0484 123.64C67.1597 123.451 67.2153 123.248 67.2153 123.033V122.33C67.1774 122.367 67.104 122.403 66.9951 122.436C66.8886 122.467 66.7667 122.494 66.6294 122.518C66.492 122.539 66.3583 122.559 66.2281 122.578C66.0979 122.595 65.989 122.609 65.9014 122.621C65.6954 122.647 65.5072 122.691 65.3367 122.752C65.1686 122.814 65.0337 122.902 64.9319 123.018C64.8325 123.132 64.7828 123.284 64.7828 123.473C64.7828 123.736 64.8798 123.935 65.074 124.07C65.2681 124.202 65.5155 124.268 65.8161 124.268ZM71.9889 125.11C71.4775 125.11 71.0313 124.993 70.6501 124.759C70.269 124.524 69.973 124.196 69.7623 123.775C69.5516 123.353 69.4463 122.861 69.4463 122.298C69.4463 121.732 69.5516 121.237 69.7623 120.813C69.973 120.389 70.269 120.06 70.6501 119.826C71.0313 119.592 71.4775 119.474 71.9889 119.474C72.5003 119.474 72.9465 119.592 73.3277 119.826C73.7088 120.06 74.0048 120.389 74.2155 120.813C74.4262 121.237 74.5315 121.732 74.5315 122.298C74.5315 122.861 74.4262 123.353 74.2155 123.775C74.0048 124.196 73.7088 124.524 73.3277 124.759C72.9465 124.993 72.5003 125.11 71.9889 125.11ZM71.9925 124.219C72.3239 124.219 72.5985 124.131 72.8163 123.956C73.0341 123.781 73.1951 123.548 73.2993 123.256C73.4058 122.965 73.4591 122.644 73.4591 122.294C73.4591 121.946 73.4058 121.626 73.2993 121.335C73.1951 121.042 73.0341 120.806 72.8163 120.629C72.5985 120.451 72.3239 120.362 71.9925 120.362C71.6586 120.362 71.3817 120.451 71.1615 120.629C70.9437 120.806 70.7815 121.042 70.675 121.335C70.5708 121.626 70.5187 121.946 70.5187 122.294C70.5187 122.644 70.5708 122.965 70.675 123.256C70.7815 123.548 70.9437 123.781 71.1615 123.956C71.3817 124.131 71.6586 124.219 71.9925 124.219ZM80.9094 119.545V120.398H77.93V119.545H80.9094ZM78.729 118.239H79.7907V123.398C79.7907 123.604 79.8215 123.759 79.8831 123.864C79.9446 123.965 80.0239 124.035 80.121 124.073C80.2204 124.109 80.3282 124.126 80.4442 124.126C80.5294 124.126 80.604 124.121 80.6679 124.109C80.7318 124.097 80.7815 124.087 80.817 124.08L81.0088 124.957C80.9472 124.981 80.8596 125.005 80.746 125.028C80.6324 125.054 80.4903 125.069 80.3199 125.071C80.0405 125.076 79.7801 125.026 79.5386 124.922C79.2971 124.818 79.1018 124.657 78.9527 124.439C78.8035 124.221 78.729 123.948 78.729 123.619V118.239ZM82.0839 125V119.545H83.1457V125H82.0839ZM82.6201 118.704C82.4355 118.704 82.2768 118.642 82.1443 118.519C82.0141 118.394 81.949 118.245 81.949 118.072C81.949 117.897 82.0141 117.747 82.1443 117.624C82.2768 117.499 82.4355 117.436 82.6201 117.436C82.8048 117.436 82.9622 117.499 83.0924 117.624C83.225 117.747 83.2913 117.897 83.2913 118.072C83.2913 118.245 83.225 118.394 83.0924 118.519C82.9622 118.642 82.8048 118.704 82.6201 118.704ZM86.925 125.11C86.3876 125.11 85.9247 124.995 85.5365 124.766C85.1506 124.534 84.8523 124.208 84.6416 123.789C84.4333 123.368 84.3291 122.874 84.3291 122.308C84.3291 121.75 84.4333 121.257 84.6416 120.831C84.8523 120.405 85.1459 120.072 85.5223 119.833C85.9011 119.594 86.3438 119.474 86.8504 119.474C87.1582 119.474 87.4565 119.525 87.7453 119.627C88.0341 119.729 88.2934 119.889 88.523 120.107C88.7526 120.324 88.9337 120.607 89.0663 120.955C89.1989 121.301 89.2652 121.721 89.2652 122.216V122.592H84.9292V121.797H88.2247C88.2247 121.518 88.1679 121.27 88.0542 121.055C87.9406 120.837 87.7808 120.665 87.5748 120.54C87.3712 120.414 87.1321 120.352 86.8575 120.352C86.5592 120.352 86.2988 120.425 86.0763 120.572C85.8561 120.716 85.6856 120.906 85.5649 121.14C85.4465 121.372 85.3873 121.624 85.3873 121.896V122.518C85.3873 122.882 85.4513 123.192 85.5791 123.448C85.7093 123.704 85.8904 123.899 86.1224 124.034C86.3544 124.167 86.6255 124.233 86.9356 124.233C87.1369 124.233 87.3203 124.205 87.4861 124.148C87.6518 124.089 87.795 124.001 87.9157 123.885C88.0365 123.769 88.1288 123.626 88.1927 123.455L89.1977 123.636C89.1172 123.932 88.9728 124.192 88.7645 124.414C88.5585 124.634 88.2993 124.806 87.9868 124.929C87.6766 125.05 87.3227 125.11 86.925 125.11ZM84.9719 118.892L86.4136 117.66H87.2055L88.6508 118.892H87.6068L86.8184 118.189L86.023 118.892H84.9719ZM88.2709 118.104L89.0131 116.808H90.0961L89.0486 118.104H88.2709ZM90.4433 127.045V119.545H91.4802V120.43H91.569C91.6305 120.316 91.7193 120.185 91.8353 120.036C91.9513 119.886 92.1123 119.756 92.3183 119.645C92.5242 119.531 92.7965 119.474 93.135 119.474C93.5754 119.474 93.9684 119.586 94.314 119.808C94.6597 120.031 94.9307 120.352 95.1272 120.771C95.3261 121.19 95.4255 121.694 95.4255 122.283C95.4255 122.873 95.3273 123.378 95.1308 123.8C94.9343 124.219 94.6644 124.542 94.3211 124.769C93.9778 124.994 93.586 125.107 93.1457 125.107C92.8142 125.107 92.5432 125.051 92.3325 124.94C92.1241 124.828 91.9608 124.698 91.8424 124.549C91.724 124.4 91.6329 124.267 91.569 124.151H91.5051V127.045H90.4433ZM91.4838 122.273C91.4838 122.656 91.5394 122.992 91.6507 123.281C91.7619 123.57 91.9229 123.796 92.1336 123.96C92.3443 124.121 92.6024 124.201 92.9078 124.201C93.225 124.201 93.4901 124.117 93.7032 123.949C93.9163 123.778 94.0773 123.548 94.1862 123.256C94.2974 122.965 94.3531 122.637 94.3531 122.273C94.3531 121.913 94.2986 121.59 94.1897 121.303C94.0832 121.017 93.9222 120.791 93.7068 120.625C93.4937 120.459 93.2274 120.376 92.9078 120.376C92.6 120.376 92.3396 120.456 92.1265 120.614C91.9158 120.773 91.756 120.994 91.6471 121.278C91.5382 121.562 91.4838 121.894 91.4838 122.273ZM101.559 125.11C101.031 125.11 100.577 124.991 100.196 124.751C99.8168 124.51 99.5256 124.177 99.322 123.754C99.1184 123.33 99.0166 122.844 99.0166 122.298C99.0166 121.744 99.1208 121.255 99.3291 120.831C99.5374 120.405 99.831 120.072 100.21 119.833C100.589 119.594 101.035 119.474 101.549 119.474C101.963 119.474 102.332 119.551 102.657 119.705C102.981 119.857 103.242 120.07 103.441 120.344C103.643 120.619 103.762 120.94 103.8 121.307H102.767C102.71 121.051 102.58 120.831 102.376 120.646C102.175 120.462 101.905 120.369 101.566 120.369C101.27 120.369 101.011 120.447 100.789 120.604C100.568 120.758 100.397 120.978 100.274 121.264C100.151 121.548 100.089 121.884 100.089 122.273C100.089 122.67 100.149 123.014 100.27 123.303C100.391 123.591 100.561 123.815 100.782 123.974C101.004 124.132 101.266 124.212 101.566 124.212C101.768 124.212 101.95 124.175 102.113 124.102C102.279 124.026 102.417 123.918 102.529 123.778C102.642 123.639 102.722 123.471 102.767 123.274H103.8C103.762 123.627 103.647 123.942 103.456 124.219C103.264 124.496 103.007 124.714 102.685 124.872C102.365 125.031 101.99 125.11 101.559 125.11ZM106.523 125.121C106.177 125.121 105.865 125.057 105.585 124.929C105.306 124.799 105.085 124.611 104.921 124.364C104.76 124.118 104.68 123.816 104.68 123.459C104.68 123.151 104.739 122.898 104.857 122.699C104.976 122.5 105.136 122.343 105.337 122.227C105.538 122.111 105.763 122.023 106.011 121.964C106.26 121.905 106.513 121.86 106.771 121.829C107.098 121.791 107.363 121.76 107.567 121.737C107.77 121.71 107.918 121.669 108.011 121.612C108.103 121.555 108.149 121.463 108.149 121.335V121.31C108.149 121 108.062 120.76 107.886 120.589C107.714 120.419 107.456 120.334 107.112 120.334C106.755 120.334 106.473 120.413 106.267 120.572C106.064 120.728 105.923 120.902 105.845 121.094L104.847 120.866C104.965 120.535 105.138 120.268 105.365 120.064C105.595 119.858 105.859 119.709 106.157 119.616C106.455 119.522 106.769 119.474 107.098 119.474C107.316 119.474 107.547 119.5 107.791 119.553C108.037 119.602 108.266 119.695 108.479 119.83C108.695 119.964 108.871 120.157 109.009 120.408C109.146 120.657 109.215 120.98 109.215 121.378V125H108.178V124.254H108.135C108.066 124.392 107.963 124.527 107.826 124.659C107.689 124.792 107.512 124.902 107.297 124.989C107.082 125.077 106.823 125.121 106.523 125.121ZM106.754 124.268C107.047 124.268 107.298 124.21 107.506 124.094C107.717 123.978 107.877 123.827 107.986 123.64C108.097 123.451 108.153 123.248 108.153 123.033V122.33C108.115 122.367 108.042 122.403 107.933 122.436C107.826 122.467 107.704 122.494 107.567 122.518C107.43 122.539 107.296 122.559 107.166 122.578C107.035 122.595 106.926 122.609 106.839 122.621C106.633 122.647 106.445 122.691 106.274 122.752C106.106 122.814 105.971 122.902 105.869 123.018C105.77 123.132 105.72 123.284 105.72 123.473C105.72 123.736 105.817 123.935 106.011 124.07C106.206 124.202 106.453 124.268 106.754 124.268ZM107.883 118.892L107.155 117.94L106.423 118.892H105.465V118.839L106.711 117.333H107.595L108.845 118.839V118.892H107.883ZM114.084 122.738V119.545H115.149V125H114.105V124.055H114.049C113.923 124.347 113.722 124.589 113.445 124.783C113.17 124.975 112.828 125.071 112.419 125.071C112.068 125.071 111.758 124.994 111.488 124.84C111.221 124.684 111.01 124.453 110.856 124.148C110.705 123.842 110.629 123.465 110.629 123.015V119.545H111.691V122.887C111.691 123.259 111.794 123.555 112 123.775C112.206 123.995 112.473 124.105 112.802 124.105C113.001 124.105 113.199 124.055 113.395 123.956C113.594 123.857 113.759 123.706 113.889 123.505C114.021 123.304 114.086 123.048 114.084 122.738ZM77.4168 141.107C76.9765 141.107 76.5835 140.994 76.2378 140.769C75.8946 140.542 75.6247 140.219 75.4282 139.8C75.234 139.378 75.137 138.873 75.137 138.283C75.137 137.694 75.2352 137.19 75.4317 136.771C75.6306 136.352 75.9028 136.031 76.2485 135.808C76.5941 135.586 76.9859 135.474 77.4239 135.474C77.7625 135.474 78.0347 135.531 78.2407 135.645C78.449 135.756 78.61 135.886 78.7236 136.036C78.8396 136.185 78.9296 136.316 78.9935 136.43H79.0574V133.727H80.1192V141H79.0823V140.151H78.9935C78.9296 140.267 78.8373 140.4 78.7165 140.549C78.5982 140.698 78.4348 140.828 78.2265 140.94C78.0181 141.051 77.7483 141.107 77.4168 141.107ZM77.6512 140.201C77.9566 140.201 78.2146 140.121 78.4253 139.96C78.6384 139.796 78.7994 139.57 78.9083 139.281C79.0196 138.992 79.0752 138.656 79.0752 138.273C79.0752 137.894 79.0207 137.562 78.9118 137.278C78.8029 136.994 78.6431 136.773 78.4324 136.614C78.2217 136.456 77.9613 136.376 77.6512 136.376C77.3316 136.376 77.0653 136.459 76.8522 136.625C76.6391 136.791 76.4781 137.017 76.3692 137.303C76.2627 137.59 76.2094 137.913 76.2094 138.273C76.2094 138.637 76.2639 138.965 76.3728 139.256C76.4817 139.548 76.6427 139.778 76.8557 139.949C77.0712 140.117 77.3363 140.201 77.6512 140.201ZM77.5837 135.109V134.374H80.8472V135.109H77.5837ZM86.1943 135.165H87.0146C87.0146 135.724 86.888 136.166 86.6347 136.49C86.3837 136.812 85.9552 136.973 85.3492 136.973V136.376C85.5906 136.376 85.7718 136.327 85.8925 136.227C86.0132 136.125 86.0937 135.985 86.134 135.805C86.1742 135.622 86.1943 135.409 86.1943 135.165ZM83.9323 141.11C83.4209 141.11 82.9746 140.993 82.5935 140.759C82.2123 140.524 81.9164 140.196 81.7057 139.775C81.495 139.353 81.3896 138.861 81.3896 138.298C81.3896 137.732 81.495 137.237 81.7057 136.813C81.9164 136.389 82.2123 136.06 82.5935 135.826C82.9746 135.592 83.4209 135.474 83.9323 135.474C84.4436 135.474 84.8899 135.592 85.271 135.826C85.6522 136.06 85.9481 136.389 86.1588 136.813C86.3695 137.237 86.4749 137.732 86.4749 138.298C86.4749 138.861 86.3695 139.353 86.1588 139.775C85.9481 140.196 85.6522 140.524 85.271 140.759C84.8899 140.993 84.4436 141.11 83.9323 141.11ZM83.9358 140.219C84.2673 140.219 84.5419 140.131 84.7597 139.956C84.9775 139.781 85.1385 139.548 85.2426 139.256C85.3492 138.965 85.4024 138.644 85.4024 138.294C85.4024 137.946 85.3492 137.626 85.2426 137.335C85.1385 137.042 84.9775 136.806 84.7597 136.629C84.5419 136.451 84.2673 136.362 83.9358 136.362C83.602 136.362 83.325 136.451 83.1048 136.629C82.887 136.806 82.7249 137.042 82.6183 137.335C82.5142 137.626 82.4621 137.946 82.4621 138.294C82.4621 138.644 82.5142 138.965 82.6183 139.256C82.7249 139.548 82.887 139.781 83.1048 139.956C83.325 140.131 83.602 140.219 83.9358 140.219ZM88.7902 137.761V141H87.7284V135.545H88.7476V136.433H88.8151C88.9405 136.144 89.137 135.912 89.4046 135.737C89.6744 135.562 90.0142 135.474 90.4237 135.474C90.7954 135.474 91.1209 135.553 91.4003 135.709C91.6797 135.863 91.8963 136.092 92.0502 136.398C92.204 136.703 92.281 137.081 92.281 137.531V141H91.2192V137.658C91.2192 137.263 91.1162 136.954 90.9102 136.732C90.7043 136.507 90.4214 136.394 90.0615 136.394C89.8153 136.394 89.5963 136.447 89.4046 136.554C89.2152 136.661 89.0648 136.817 88.9536 137.023C88.8447 137.226 88.7902 137.473 88.7902 137.761ZM94.4046 141.067C94.2104 141.067 94.0435 140.999 93.9039 140.862C93.7642 140.722 93.6943 140.554 93.6943 140.357C93.6943 140.163 93.7642 139.997 93.9039 139.86C94.0435 139.72 94.2104 139.651 94.4046 139.651C94.5987 139.651 94.7656 139.72 94.9053 139.86C95.045 139.997 95.1148 140.163 95.1148 140.357C95.1148 140.487 95.0816 140.607 95.0154 140.716C94.9514 140.822 94.8662 140.908 94.7597 140.972C94.6531 141.036 94.5348 141.067 94.4046 141.067Z" fill="white"/>
<path d="M132.309 196.257H37.8976L0.0214844 221.676H94.9848L132.309 196.257Z" fill="#02A3DA"/>
<path d="M94.9623 221.675V178.182C94.9623 165.536 89.2131 155.19 82.1865 155.19H12.7748C5.74925 155.19 0 165.537 0 178.182V221.675H94.9623Z" fill="#35C2F3"/>
<path d="M47.0719 167.236C35.4325 167.236 25.9961 176.659 25.9961 188.284C25.9961 199.907 35.4335 209.332 47.0719 209.332C58.7122 209.332 68.1487 199.907 68.1487 188.284C68.1487 176.658 58.7132 167.236 47.0719 167.236ZM47.0719 205.415C37.5981 205.415 29.918 197.745 29.918 188.284C29.918 178.821 37.599 171.152 47.0719 171.152C56.5476 171.152 64.2267 178.822 64.2267 188.284C64.2267 197.745 56.5476 205.415 47.0719 205.415Z" fill="white"/>
<path d="M44.0753 191.152C44.518 191.379 45.5299 191.804 46.5408 191.804C47.8296 191.804 48.4812 191.185 48.4812 190.387C48.4812 189.344 47.4377 188.871 46.3444 188.871H45.3325V187.094H46.2964C47.1272 187.078 48.1889 186.768 48.1889 185.873C48.1889 185.237 47.6667 184.764 46.6222 184.764C45.757 184.764 44.8448 185.139 44.403 185.401L43.8981 183.607C44.5343 183.201 45.8068 182.809 47.178 182.809C49.4461 182.809 50.7032 183.998 50.7032 185.449C50.7032 186.573 50.066 187.454 48.7619 187.91V187.942C50.0344 188.17 51.0626 189.131 51.0626 190.515C51.0626 192.391 49.4145 193.758 46.7219 193.758C45.3507 193.758 44.1913 193.401 43.5723 193.01L44.0753 191.152Z" fill="white"/>
</svg>
