<svg width="12" height="12" viewBox="0 0 12 12" fill="none" xmlns="http://www.w3.org/2000/svg">
<path d="M1.96875 2.62502C1.86929 2.62502 1.77391 2.66452 1.70358 2.73485C1.63326 2.80518 1.59375 2.90056 1.59375 3.00002C1.59375 3.09947 1.63326 3.19485 1.70358 3.26518C1.77391 3.33551 1.86929 3.37502 1.96875 3.37502H2.80125L3.78525 7.31252C3.86888 7.64627 4.16775 7.87502 4.51163 7.87502H9.18787C9.5265 7.87502 9.81413 7.65002 9.903 7.32377L10.875 3.75002H10.0898L9.1875 7.12502H4.51125L3.52762 3.18752C3.48699 3.02598 3.39333 2.88275 3.26163 2.78076C3.12993 2.67877 2.96782 2.62393 2.80125 2.62502H1.96875ZM8.71875 7.87502C8.10187 7.87502 7.59375 8.38314 7.59375 9.00002C7.59375 9.61689 8.10187 10.125 8.71875 10.125C9.33563 10.125 9.84375 9.61689 9.84375 9.00002C9.84375 8.38314 9.33563 7.87502 8.71875 7.87502ZM5.34375 7.87502C4.72688 7.87502 4.21875 8.38314 4.21875 9.00002C4.21875 9.61689 4.72688 10.125 5.34375 10.125C5.96063 10.125 6.46875 9.61689 6.46875 9.00002C6.46875 8.38314 5.96063 7.87502 5.34375 7.87502ZM6.46875 2.62502V4.50002H5.34375L6.84375 6.00002L8.34375 4.50002H7.21875V2.62502H6.46875ZM5.34375 8.62502C5.55525 8.62502 5.71875 8.78852 5.71875 9.00002C5.71875 9.21152 5.55525 9.37502 5.34375 9.37502C5.13225 9.37502 4.96875 9.21152 4.96875 9.00002C4.96875 8.78852 5.13225 8.62502 5.34375 8.62502ZM8.71875 8.62502C8.93025 8.62502 9.09375 8.78852 9.09375 9.00002C9.09375 9.21152 8.93025 9.37502 8.71875 9.37502C8.50725 9.37502 8.34375 9.21152 8.34375 9.00002C8.34375 8.78852 8.50725 8.62502 8.71875 8.62502Z" fill="#313A4C"/>
</svg>
