<svg width="18" height="16" viewBox="0 0 18 16" fill="none" xmlns="http://www.w3.org/2000/svg">
<path d="M15.048 10.432C15.363 9.68308 15.534 8.88135 15.534 8.00033C15.534 7.366 15.435 6.75809 15.264 6.19424C14.679 6.32639 14.067 6.39688 13.428 6.39688C12.1194 6.39825 10.8296 6.09162 9.66738 5.50284C8.50516 4.91405 7.50459 4.06037 6.75 3.01376C5.94356 4.92622 4.42055 6.4644 2.493 7.31314C2.457 7.53339 2.457 7.77127 2.457 8.00033C2.457 8.84145 2.62624 9.67434 2.95506 10.4514C3.28387 11.2285 3.76583 11.9346 4.3734 12.5294C5.60045 13.7305 7.26469 14.4054 9 14.4054C9.945 14.4054 10.854 14.2027 11.673 13.8415C12.186 14.8018 12.42 15.2776 12.402 15.2776C10.926 15.7621 9.783 16 9 16C6.822 16 4.743 15.163 3.213 13.6565C2.28154 12.749 1.58964 11.6332 1.197 10.4055H0V6.39688H0.981C1.27822 4.98065 1.96154 3.6696 2.95847 2.60284C3.9554 1.53609 5.22874 0.753417 6.64338 0.337885C8.05801 -0.0776472 9.56118 -0.110543 10.9934 0.242689C12.4256 0.595921 13.7334 1.3221 14.778 2.34418C15.9118 3.45037 16.6854 4.86063 17.001 6.39688H18V10.4055H17.946L14.742 13.2865L9.972 12.7578V11.2865H14.319L15.048 10.432ZM6.543 7.7977C6.813 7.7977 7.074 7.90342 7.263 8.09725C7.45294 8.2847 7.55952 8.53803 7.55952 8.80206C7.55952 9.06609 7.45294 9.31942 7.263 9.50688C7.074 9.69189 6.813 9.79762 6.543 9.79762C5.976 9.79762 5.517 9.35711 5.517 8.80206C5.517 8.24702 5.976 7.7977 6.543 7.7977ZM11.448 7.7977C12.015 7.7977 12.465 8.24702 12.465 8.80206C12.465 9.35711 12.015 9.79762 11.448 9.79762C10.881 9.79762 10.422 9.35711 10.422 8.80206C10.422 8.53569 10.5301 8.28022 10.7225 8.09187C10.9149 7.90352 11.1759 7.7977 11.448 7.7977Z" fill="#E8AF00"/>
</svg>
