<svg width="16" height="16" viewBox="0 0 16 16" fill="none" xmlns="http://www.w3.org/2000/svg">
<path d="M7.4 8.80012V13.6H5C4.52261 13.6 4.06477 13.4103 3.72721 13.0728C3.38964 12.7352 3.2 12.2774 3.2 11.8V9.4001C3.2 9.24097 3.26321 9.08837 3.37574 8.97585C3.48826 8.86333 3.64087 8.80012 3.8 8.80012H7.4ZM12.2 8.80012C12.3591 8.80012 12.5117 8.86333 12.6243 8.97585C12.7368 9.08837 12.8 9.24097 12.8 9.4001V11.8C12.8 12.2774 12.6104 12.7352 12.2728 13.0728C11.9352 13.4103 11.4774 13.6 11 13.6H8.6V8.80012H12.2ZM10.7 1.60033C11.0543 1.60025 11.4029 1.68982 11.7133 1.8607C12.0236 2.03158 12.2857 2.2782 12.4751 2.57762C12.6646 2.87704 12.7751 3.21951 12.7966 3.57316C12.818 3.9268 12.7496 4.28013 12.5978 4.60024H12.8C13.1183 4.60024 13.4235 4.72666 13.6485 4.9517C13.8736 5.17674 14 5.48195 14 5.8002V6.40019C14 6.71844 13.8736 7.02365 13.6485 7.24869C13.4235 7.47373 13.1183 7.60015 12.8 7.60015H8.6V4.60024H7.4V7.60015H3.2C2.88174 7.60015 2.57652 7.47373 2.35147 7.24869C2.12643 7.02365 2 6.71844 2 6.40019V5.8002C2 5.48195 2.12643 5.17674 2.35147 4.9517C2.57652 4.72666 2.88174 4.60024 3.2 4.60024H3.4022C3.26893 4.31894 3.19986 4.01154 3.2 3.70027C3.2 2.5405 4.1402 1.60033 5.2898 1.60033C6.3428 1.58233 7.277 2.25551 7.9184 3.36068L8 3.50647C8.6198 2.35811 9.536 1.63813 10.5746 1.60153L10.7 1.60033ZM5.3 2.80029C5.06131 2.80029 4.83239 2.89511 4.6636 3.06389C4.49482 3.23267 4.4 3.46158 4.4 3.70027C4.4 3.93895 4.49482 4.16787 4.6636 4.33664C4.83239 4.50542 5.06131 4.60024 5.3 4.60024H7.1858C6.7412 3.45727 6.0164 2.78829 5.3 2.80029ZM10.6898 2.80029C9.9818 2.78829 9.2588 3.45787 8.8142 4.60024H10.7C10.9387 4.59889 11.1671 4.50277 11.3349 4.33304C11.5027 4.1633 11.5963 3.93385 11.5949 3.69517C11.5935 3.45648 11.4974 3.2281 11.3277 3.06028C11.158 2.89246 10.9285 2.79894 10.6898 2.80029Z" fill="#667085"/>
</svg>
