<svg width="12" height="12" viewBox="0 0 12 12" fill="none" xmlns="http://www.w3.org/2000/svg">
<path fill-rule="evenodd" clip-rule="evenodd" d="M2.75297 1.90052C1.70547 2.51102 0.968467 3.75052 1.00097 5.19652C1.04147 7.00152 2.44597 8.59352 4.84047 10.0155C5.19547 10.2265 5.56947 10.5 5.99997 10.5C6.42247 10.5 6.81247 10.2215 7.15997 10.015C9.55347 8.59352 10.9585 7.00102 10.999 5.19652C11.0315 3.75052 10.2945 2.51152 9.24697 1.90052C8.26697 1.33002 7.03597 1.32652 5.99997 2.16902C4.96397 1.32652 3.73297 1.32952 2.75297 1.90052ZM3.25647 2.76502C3.95347 2.35902 4.82447 2.37352 5.57847 3.13652C5.63375 3.192 5.69943 3.23602 5.77177 3.26606C5.8441 3.2961 5.92165 3.31156 5.99997 3.31156C6.07829 3.31156 6.15584 3.2961 6.22817 3.26606C6.3005 3.23602 6.36619 3.192 6.42147 3.13652C7.17547 2.37352 8.04647 2.35902 8.74347 2.76502C9.46547 3.18602 10.0235 4.07902 9.99897 5.17502C9.97097 6.43052 8.97897 7.77202 6.64897 9.15602C6.44497 9.27752 6.23197 9.43302 5.99997 9.49752C5.76797 9.43302 5.55497 9.27752 5.35097 9.15602C3.02097 7.77202 2.02897 6.43102 2.00097 5.17452C1.97597 4.07952 2.53447 3.18602 3.25647 2.76502Z" fill="#313A4C"/>
</svg>
