<svg width="12" height="12" viewBox="0 0 12 12" fill="none" xmlns="http://www.w3.org/2000/svg">
<path d="M4 1.5C3.87753 1.50002 3.75933 1.54498 3.66781 1.62636C3.5763 1.70774 3.51783 1.81987 3.5035 1.9415L3.5 2V2.5H2.5C2.24771 2.49992 2.00472 2.5952 1.81973 2.76675C1.63474 2.93829 1.52142 3.17342 1.5025 3.425L1.5 3.5V9.5C1.49992 9.75229 1.5952 9.99528 1.76675 10.1803C1.93829 10.3653 2.17342 10.4786 2.425 10.4975L2.5 10.5H9.5C9.75229 10.5001 9.99528 10.4048 10.1803 10.2333C10.3653 10.0617 10.4786 9.82658 10.4975 9.575L10.5 9.5V3.5C10.5001 3.24771 10.4048 3.00472 10.2333 2.81973C10.0617 2.63474 9.82658 2.52142 9.575 2.5025L9.5 2.5H8.5V2C8.49986 1.87256 8.45106 1.74998 8.36358 1.65732C8.27609 1.56465 8.15652 1.50888 8.0293 1.50141C7.90208 1.49395 7.77681 1.53534 7.67908 1.61713C7.58136 1.69893 7.51855 1.81495 7.5035 1.9415L7.5 2V2.5H4.5V2C4.5 1.86739 4.44732 1.74021 4.35355 1.64645C4.25979 1.55268 4.13261 1.5 4 1.5ZM2.5 6H9.5V9.5H2.5V6ZM2.5 3.5H9.5V5H2.5V3.5Z" fill="white"/>
</svg>
