<svg width="16" height="14" viewBox="0 0 16 14" fill="none" xmlns="http://www.w3.org/2000/svg">
<path d="M14.2611 0.633174C14.7413 0.739117 15.1727 1.00163 15.4875 1.37946C15.8022 1.75728 15.9825 2.229 16 2.72045V4.11099C15.9973 4.47916 15.8499 4.83149 15.5896 5.09183C15.3292 5.35216 14.9769 5.4996 14.6087 5.50227H12.5215C12.1535 5.49904 11.8015 5.35142 11.5412 5.0912C11.281 4.83099 11.1334 4.47898 11.1302 4.11099V3.06808C9.04841 2.86347 6.95159 2.86347 4.86982 3.06808V4.11099C4.86659 4.47898 4.71897 4.83099 4.45876 5.0912C4.19854 5.35142 3.84654 5.49904 3.47855 5.50227H1.39127C1.02328 5.49904 0.67128 5.35142 0.411062 5.0912C0.150844 4.83099 0.00322733 4.47898 0 4.11099V2.72045C0.0174747 2.229 0.197765 1.75728 0.512532 1.37946C0.827298 1.00163 1.25869 0.739117 1.73891 0.633174C5.87028 -0.211058 10.1297 -0.211058 14.2611 0.633174Z" fill="#C1077B"/>
<path d="M14.2611 0.633174C10.1297 -0.211058 5.87028 -0.211058 1.73891 0.633174C1.25869 0.739116 0.827298 1.00163 0.512532 1.37946C0.197765 1.75728 0.0174747 2.229 0 2.72045V3.87681C0.0174747 3.38536 0.197765 2.91365 0.512532 2.53582C0.827298 2.158 1.25869 1.89548 1.73891 1.78954C5.87028 0.945306 10.1297 0.945306 14.2611 1.78954C14.7414 1.89551 15.1729 2.15814 15.4877 2.53611C15.8025 2.91408 15.9827 3.38596 16 3.87754V2.72117C15.9825 2.22972 15.8022 1.75801 15.4875 1.38019C15.1727 1.00236 14.7413 0.739116 14.2611 0.633174Z" fill="#E25AAF"/>
<path d="M14.6081 13.1552C14.6079 13.3397 14.5345 13.5165 14.404 13.6469C14.2735 13.7773 14.0965 13.8505 13.9121 13.8505H2.08662C1.90216 13.8505 1.72524 13.7773 1.59474 13.6469C1.46423 13.5165 1.39082 13.3397 1.39062 13.1552V11.7639C1.39465 10.2892 1.98225 8.87592 3.02501 7.83302C4.06777 6.79012 5.48093 6.20234 6.95572 6.19812H9.04299C10.5176 6.20273 11.9304 6.79065 12.973 7.83349C14.0156 8.87632 14.6031 10.2893 14.6074 11.7639L14.6081 13.1552Z" fill="#C1077B"/>
<path d="M9.04226 6.19812H6.95499C5.48039 6.20273 4.06753 6.79065 3.02496 7.83349C1.9824 8.87632 1.39484 10.2893 1.39062 11.7639V13.1552C1.39426 13.2285 1.40897 13.3009 1.43426 13.3698C1.59955 12.0203 2.25173 10.7776 3.26837 9.87488C4.285 8.9722 5.59617 8.47165 6.95572 8.46721H9.04299C10.4024 8.47197 11.7134 8.97262 12.73 9.87524C13.7466 10.7779 14.3989 12.0204 14.5644 13.3698C14.5897 13.3009 14.6044 13.2285 14.6081 13.1552V11.7639C14.6039 10.2891 14.0161 8.87585 12.9732 7.83297C11.9303 6.79009 10.5171 6.20234 9.04226 6.19812Z" fill="#E25AAF"/>
<path d="M7.99936 12.4593C8.64514 12.4593 9.26447 12.2028 9.7211 11.7461C10.1777 11.2895 10.4343 10.6702 10.4343 10.0244C10.4343 9.37861 10.1777 8.75928 9.7211 8.30265C9.26447 7.84601 8.64514 7.58948 7.99936 7.58948C7.35358 7.58948 6.73426 7.84601 6.27762 8.30265C5.82099 8.75928 5.56445 9.37861 5.56445 10.0244C5.56445 10.6702 5.82099 11.2895 6.27762 11.7461C6.73426 12.2028 7.35358 12.4593 7.99936 12.4593Z" fill="#EB8DC8"/>
<path d="M6.95508 4.80676V6.19804" stroke="#970660" stroke-linecap="round" stroke-linejoin="round"/>
<path d="M6.27765 11.7467C6.05154 11.5206 5.87218 11.2521 5.74981 10.9567C5.62744 10.6613 5.56445 10.3446 5.56445 10.0249C5.56445 9.70509 5.62744 9.38845 5.74981 9.09302C5.87218 8.79759 6.05154 8.52916 6.27765 8.30304C6.50377 8.07693 6.7722 7.89757 7.06763 7.7752C7.36306 7.65283 7.6797 7.58984 7.99947 7.58984C8.31924 7.58984 8.63588 7.65283 8.93131 7.7752C9.22674 7.89757 9.49518 8.07693 9.72129 8.30304L6.27765 11.7467Z" fill="#E25AAF"/>
<path d="M9.043 4.80676V6.19804M7.99936 12.4591C8.64514 12.4591 9.26447 12.2026 9.7211 11.746C10.1777 11.2893 10.4343 10.67 10.4343 10.0242C10.4343 9.37844 10.1777 8.75911 9.7211 8.30248C9.26447 7.84584 8.64514 7.58931 7.99936 7.58931C7.35358 7.58931 6.73426 7.84584 6.27762 8.30248C5.82099 8.75911 5.56445 9.37844 5.56445 10.0242C5.56445 10.67 5.82099 11.2893 6.27762 11.746C6.73426 12.2026 7.35358 12.4591 7.99936 12.4591Z" stroke="#970660" stroke-linecap="round" stroke-linejoin="round"/>
</svg>
