<svg width="16" height="14" viewBox="0 0 16 14" fill="none" xmlns="http://www.w3.org/2000/svg">
<path d="M14.2611 0.633174C14.7413 0.739117 15.1727 1.00163 15.4875 1.37946C15.8022 1.75728 15.9825 2.229 16 2.72045V4.11099C15.9973 4.47916 15.8499 4.83149 15.5896 5.09183C15.3292 5.35216 14.9769 5.4996 14.6087 5.50227H12.5215C12.1535 5.49904 11.8015 5.35142 11.5412 5.0912C11.281 4.83099 11.1334 4.47898 11.1302 4.11099V3.06808C9.04841 2.86347 6.95159 2.86347 4.86982 3.06808V4.11099C4.86659 4.47898 4.71897 4.83099 4.45876 5.0912C4.19854 5.35142 3.84654 5.49904 3.47855 5.50227H1.39127C1.02328 5.49904 0.67128 5.35142 0.411062 5.0912C0.150844 4.83099 0.00322733 4.47898 0 4.11099V2.72045C0.0174747 2.229 0.197765 1.75728 0.512532 1.37946C0.827298 1.00163 1.25869 0.739117 1.73891 0.633174C5.87028 -0.211058 10.1297 -0.211058 14.2611 0.633174Z" fill="#E8AF00"/>
<path d="M14.2611 0.633174C10.1297 -0.211058 5.87028 -0.211058 1.73891 0.633174C1.25869 0.739116 0.827298 1.00163 0.512532 1.37946C0.197765 1.75728 0.0174747 2.229 0 2.72045V3.87681C0.0174747 3.38536 0.197765 2.91365 0.512532 2.53582C0.827298 2.158 1.25869 1.89548 1.73891 1.78954C5.87028 0.945306 10.1297 0.945306 14.2611 1.78954C14.7414 1.89551 15.1729 2.15814 15.4877 2.53611C15.8025 2.91408 15.9827 3.38596 16 3.87754V2.72117C15.9825 2.22972 15.8022 1.75801 15.4875 1.38019C15.1727 1.00236 14.7413 0.739116 14.2611 0.633174Z" fill="#FFD554"/>
<path d="M14.6081 13.1553C14.6079 13.3398 14.5345 13.5166 14.404 13.647C14.2735 13.7774 14.0965 13.8506 13.9121 13.8506H2.08662C1.90216 13.8506 1.72524 13.7774 1.59474 13.647C1.46423 13.5166 1.39082 13.3398 1.39062 13.1553V11.7641C1.39465 10.2893 1.98225 8.87604 3.02501 7.83314C4.06777 6.79024 5.48093 6.20246 6.95572 6.19824H9.04299C10.5176 6.20285 11.9304 6.79077 12.973 7.83361C14.0156 8.87645 14.6031 10.2895 14.6074 11.7641L14.6081 13.1553Z" fill="#E8AF00"/>
<path d="M9.04226 6.19824H6.95499C5.48039 6.20285 4.06753 6.79077 3.02496 7.83361C1.9824 8.87645 1.39484 10.2895 1.39062 11.7641V13.1553C1.39426 13.2286 1.40897 13.301 1.43426 13.3699C1.59955 12.0204 2.25173 10.7777 3.26837 9.875C4.285 8.97232 5.59617 8.47178 6.95572 8.46733H9.04299C10.4024 8.47209 11.7134 8.97274 12.73 9.87537C13.7466 10.778 14.3989 12.0205 14.5644 13.3699C14.5897 13.301 14.6044 13.2286 14.6081 13.1553V11.7641C14.6039 10.2892 14.0161 8.87598 12.9732 7.8331C11.9303 6.79022 10.5171 6.20246 9.04226 6.19824Z" fill="#FFD554"/>
<path d="M7.99936 12.4594C8.64514 12.4594 9.26447 12.2029 9.7211 11.7462C10.1777 11.2896 10.4343 10.6703 10.4343 10.0245C10.4343 9.37873 10.1777 8.7594 9.7211 8.30277C9.26447 7.84613 8.64514 7.5896 7.99936 7.5896C7.35358 7.5896 6.73426 7.84613 6.27762 8.30277C5.82099 8.7594 5.56445 9.37873 5.56445 10.0245C5.56445 10.6703 5.82099 11.2896 6.27762 11.7462C6.73426 12.2029 7.35358 12.4594 7.99936 12.4594Z" fill="#FFE28A"/>
<path d="M6.95508 4.80688V6.19816" stroke="#B58800" stroke-linecap="round" stroke-linejoin="round"/>
<path d="M6.27765 11.7467C6.05154 11.5206 5.87218 11.2521 5.74981 10.9567C5.62744 10.6613 5.56445 10.3446 5.56445 10.0249C5.56445 9.70509 5.62744 9.38845 5.74981 9.09302C5.87218 8.79759 6.05154 8.52916 6.27765 8.30304C6.50377 8.07693 6.7722 7.89757 7.06763 7.7752C7.36306 7.65283 7.6797 7.58984 7.99947 7.58984C8.31924 7.58984 8.63588 7.65283 8.93131 7.7752C9.22674 7.89757 9.49518 8.07693 9.72129 8.30304L6.27765 11.7467Z" fill="#FFD554"/>
<path d="M9.043 4.80688V6.19816M7.99936 12.4592C8.64514 12.4592 9.26447 12.2027 9.7211 11.7461C10.1777 11.2894 10.4343 10.6701 10.4343 10.0243C10.4343 9.37856 10.1777 8.75923 9.7211 8.3026C9.26447 7.84596 8.64514 7.58943 7.99936 7.58943C7.35358 7.58943 6.73426 7.84596 6.27762 8.3026C5.82099 8.75923 5.56445 9.37856 5.56445 10.0243C5.56445 10.6701 5.82099 11.2894 6.27762 11.7461C6.73426 12.2027 7.35358 12.4592 7.99936 12.4592Z" stroke="#B58800" stroke-linecap="round" stroke-linejoin="round"/>
</svg>
