<svg width="20" height="20" viewBox="0 0 20 20" fill="none" xmlns="http://www.w3.org/2000/svg">
<path fill-rule="evenodd" clip-rule="evenodd" d="M8.33268 1.04156C5.91644 1.04156 3.95768 3.00032 3.95768 5.41656C3.95768 7.83281 5.91644 9.79156 8.33268 9.79156C10.7489 9.79156 12.7077 7.83281 12.7077 5.41656C12.7077 3.00032 10.7489 1.04156 8.33268 1.04156ZM5.20768 5.41656C5.20768 3.69068 6.60679 2.29156 8.33268 2.29156C10.0586 2.29156 11.4577 3.69068 11.4577 5.41656C11.4577 7.14246 10.0586 8.54157 8.33268 8.54157C6.60679 8.54157 5.20768 7.14246 5.20768 5.41656Z" fill="#313A4C"/>
<path d="M2.32883 16.2204C3.03607 13.6651 5.64893 12.2916 8.33175 12.2916C9.10346 12.2916 9.82568 12.3908 10.484 12.5771C10.8161 12.6711 11.1615 12.478 11.2555 12.1459C11.3495 11.8137 11.1565 11.4683 10.8243 11.3743C10.0476 11.1545 9.21028 11.0416 8.33175 11.0416C5.31106 11.0416 2.03362 12.6009 1.12413 15.887C1.02823 16.2334 1.02968 16.5942 1.05749 16.8849C1.162 17.9774 2.02614 18.843 3.11868 18.9478C3.22837 18.9583 3.35083 18.9583 3.50965 18.9582L7.49936 18.9582C7.84454 18.9582 8.12436 18.6784 8.12436 18.3332C8.12436 17.9881 7.84454 17.7082 7.49936 17.7082H3.53945C3.33703 17.7082 3.27992 17.7075 3.23798 17.7035C2.74246 17.656 2.34937 17.2631 2.30182 16.7659C2.28149 16.5534 2.2896 16.3622 2.32883 16.2204Z" fill="#313A4C"/>
<path fill-rule="evenodd" clip-rule="evenodd" d="M15.6117 9.71165C16.255 9.26417 17.1088 9.26399 17.7523 9.7112C17.891 9.80758 18.0221 9.93875 18.1743 10.0911L18.2415 10.1583C18.394 10.3105 18.5253 10.4415 18.6218 10.5802C19.0695 11.2236 19.0696 12.0776 18.6222 12.7213C18.5258 12.86 18.3946 12.991 18.2421 13.1433L13.2557 18.1307C13.1726 18.2138 13.0677 18.2717 12.9532 18.298L10.1389 18.9425C9.92914 18.9906 9.70943 18.9273 9.55731 18.7751C9.40519 18.6229 9.34206 18.4032 9.3902 18.1935L10.0355 15.3823C10.0617 15.2679 10.1197 15.1633 10.2026 15.0803L15.1898 10.0918C15.342 9.93932 15.473 9.80808 15.6117 9.71165ZM17.039 10.7377C16.8245 10.5886 16.5399 10.5887 16.3254 10.7378C16.2912 10.7616 16.2453 10.8041 16.0403 11.0091L15.6414 11.4081L16.9255 12.6922L17.3245 12.2931C17.5296 12.0879 17.5721 12.042 17.5958 12.0078C17.745 11.7932 17.7449 11.5086 17.5957 11.2941C17.5719 11.2599 17.5294 11.2139 17.3243 11.0089C17.1192 10.8039 17.0732 10.7615 17.039 10.7377ZM16.0417 13.5761L14.7577 12.2921L11.2136 15.837L10.8315 17.5015L12.4988 17.1197L16.0417 13.5761Z" fill="#313A4C"/>
</svg>
